<?xml version="1.0" encoding="UTF-8"?>
<svg version="1.1" xmlns="http://www.w3.org/2000/svg" width="299" height="281">
<path d="M0 0 C1.28003906 0.29003906 1.28003906 0.29003906 2.5859375 0.5859375 C23.64925025 5.97422681 42.35198167 20.75270227 55 38 C55.53040894 38.98770386 55.53040894 38.98770386 56.0715332 39.99536133 C59.25886828 45.85059894 62.29545621 47.60888855 68.5625 49.5625 C70.17842027 50.13056892 71.79172166 50.70614132 73.40234375 51.2890625 C74.18722168 51.57168945 74.97209961 51.85431641 75.78076172 52.14550781 C85.14996068 55.75301016 94.23434932 61.54918363 99.375 70.35546875 C106.56759637 86.86347638 100.80442718 106.67753409 94.7890625 122.6328125 C87.99202686 139.7441773 77.68214379 154.73610649 65 168 C64.39027344 168.67289063 63.78054687 169.34578125 63.15234375 170.0390625 C43.32767397 191.1685407 12.77896778 203.18506992 -15.80078125 204.125 C-48.07160924 204.75695954 -79.97637966 194.70759827 -103.67578125 172.26171875 C-104.44277344 171.51535156 -105.20976563 170.76898438 -106 170 C-107.22783203 168.86498047 -107.22783203 168.86498047 -108.48046875 167.70703125 C-130.56901694 146.71434902 -144.56797921 114.94082406 -145.375 84.5 C-145.07989094 74.83791074 -142.45086879 69.520701 -135.79296875 62.4609375 C-129.46997333 56.88962685 -121.88803527 53.00306692 -114 50.125 C-109.39534356 48.18664278 -107.87468269 45.0781341 -105.5859375 40.78515625 C-94.51684571 21.34608619 -73.90183769 6.8335529 -52.60546875 0.6484375 C-34.93250268 -4.05486802 -17.72227139 -4.52573518 0 0 Z M69 69 C69.99 77.25 70.98 85.5 72 94 C77.04456687 91.98217325 80.4763162 90.10471677 84 86 C85.48582895 82.5230496 85.48582895 82.5230496 85 79 C81.58631319 74.22083847 76.26674342 71.4316006 71 69 C70.34 69 69.68 69 69 69 Z M-125 77 C-127.51250583 80.76875875 -127.53016086 82.53150134 -127 87 C-125.55150841 89.38636384 -124.00063942 90.99936058 -122 93 C-121.67 93 -121.34 93 -121 93 C-120.34 86.4 -119.68 79.8 -119 73 C-121.26412899 73 -123.39260667 75.62783496 -125 77 Z " fill="#02DC03" transform="translate(181,40)"/>
<path d="M0 0 C33.12827081 10.95213642 33.12827081 10.95213642 40.5625 25.3125 C47.53888403 43.20844164 41.14364343 64.07447868 34 81 C27.02356206 96.35913918 17.64388085 109.82199618 6 122 C5.39027344 122.67289062 4.78054687 123.34578125 4.15234375 124.0390625 C-15.02654507 144.48025611 -45.14199649 157.09828501 -72.90429688 158.06640625 C-75.12381432 158.12710408 -77.34230898 158.16195861 -79.5625 158.1875 C-80.27124268 158.20063232 -80.97998535 158.21376465 -81.71020508 158.22729492 C-86.77648162 158.23492928 -91.12593933 157.38710613 -96 156 C-96.33848652 154.10507994 -96.67056911 152.20901534 -97 150.3125 C-97.185625 149.25675781 -97.37125 148.20101562 -97.5625 147.11328125 C-97.95068074 144.35095938 -98.08259976 141.78257957 -98 139 C-98.680625 138.92523438 -99.36125 138.85046875 -100.0625 138.7734375 C-116.69681892 136.51718679 -133.51754316 128.96181529 -147 119 C-147.33 118.01 -147.66 117.02 -148 116 C-141.88900907 116.93591753 -135.87348403 117.99464796 -129.875 119.5 C-115.70987687 122.82601818 -101.48984855 123.30829465 -87 123 C-87.495 115.575 -87.495 115.575 -88 108 C-89.11890625 107.97421875 -90.2378125 107.9484375 -91.390625 107.921875 C-119.37991558 107.02973867 -151.53291956 104.72857595 -172.83203125 84.40234375 C-176.73708131 80.07512612 -180.83015301 75.20027493 -181.1484375 69.203125 C-181.09945312 68.47609375 -181.05046875 67.7490625 -181 67 C-180.42636719 67.3403125 -179.85273438 67.680625 -179.26171875 68.03125 C-163.66579657 76.92968208 -147.5893983 82.55750824 -130 86 C-129.20577637 86.16371094 -128.41155273 86.32742187 -127.59326172 86.49609375 C-102.59934063 91.52919456 -77.07662815 89.13631628 -52 86 C-52.16371094 85.13117188 -52.32742187 84.26234375 -52.49609375 83.3671875 C-52.96769197 80.21588773 -53.10128487 77.30535937 -53.0625 74.125 C-53.05347656 73.15820312 -53.04445313 72.19140625 -53.03515625 71.1953125 C-53.02355469 70.47085938 -53.01195312 69.74640625 -53 69 C-51.8864917 68.7980603 -51.8864917 68.7980603 -50.75048828 68.59204102 C-29.31114582 64.62709583 -8.90305895 59.12567641 11 50 C11.33 46.37 11.66 42.74 12 39 C12.33 39 12.66 39 13 39 C13 41.97 13 44.94 13 48 C14.62957312 46.90259375 16.25351228 45.79681808 17.875 44.6875 C18.77992188 44.07261719 19.68484375 43.45773438 20.6171875 42.82421875 C23.19971385 41.05086051 23.19971385 41.05086051 25 38 C25.39349043 34.56921411 25.39349043 34.56921411 24 31 C20.43221754 27.64867296 16.85398858 25.10974492 11.8984375 24.81640625 C10.94195312 24.54699219 9.98546875 24.27757813 9 24 C7.58825185 21.33336461 6.68004448 19.15150788 5.8125 16.3125 C5.34294482 14.89089905 4.87032749 13.47030557 4.39453125 12.05078125 C4.16975098 11.3645166 3.9449707 10.67825195 3.71337891 9.97119141 C2.70934887 7.19687979 1.33517598 4.62702767 0 2 C0 1.34 0 0.68 0 0 Z " fill="#2F4D4C" transform="translate(240,86)"/>
<path d="M0 0 C1.28003906 0.29003906 1.28003906 0.29003906 2.5859375 0.5859375 C25.49863194 6.44732445 43.43670976 22.68645347 57.3125 41.0625 C59.69608858 45.21170974 61.30487663 49.5325297 63 54 C63.58927574 55.49162556 64.18058873 56.98244719 64.7734375 58.47265625 C65.4116331 60.08586837 66.04965269 61.69915013 66.6875 63.3125 C66.99727783 64.08948242 67.30705566 64.86646484 67.6262207 65.66699219 C70.47986191 72.94625561 71.13804314 79.01993437 71.0625 86.8125 C71.05798828 87.69615234 71.05347656 88.57980469 71.04882812 89.49023438 C71.03709866 91.66018559 71.01916495 93.83010172 71 96 C69.52512154 96.77900679 68.04478001 97.54767059 66.5625 98.3125 C65.73878906 98.74175781 64.91507813 99.17101562 64.06640625 99.61328125 C60.1376169 101.38999491 56.10669298 102.69895353 52 104 C51.99589111 103.32646484 51.99178223 102.65292969 51.98754883 101.95898438 C51.7536362 79.99739585 48.59309494 58.2421406 32.6953125 41.5625 C12.69219274 23.12644492 -7.17273416 17.21858454 -34.08154297 17.87695312 C-48.5716181 18.48787816 -63.06337841 25.60095333 -74 35 C-74.99193359 35.77923828 -74.99193359 35.77923828 -76.00390625 36.57421875 C-90.05768202 48.01457891 -98.79049415 67.20912224 -101 85 C-102.10166565 96.37061949 -102.10166565 96.37061949 -99 107 C-97.13359008 108.04477573 -97.13359008 108.04477573 -95 108.625 C-92.84375 109.57421875 -92.84375 109.57421875 -91 111 C-89.01782065 116.15526483 -88.92060923 121.53196048 -89 127 C-94.76839501 127.54366662 -98.77334194 125.68447291 -103.875 123.3125 C-104.63941406 122.97283203 -105.40382812 122.63316406 -106.19140625 122.28320312 C-111.40402894 119.91584053 -116.22209614 117.14962949 -121 114 C-119.73617008 122.16405074 -114.88424978 129.14290447 -108.51171875 134.27734375 C-85.11067638 150.32689225 -56.49932463 151.59222503 -29 154 C-28.63913128 156.47836284 -28.28601843 158.95739787 -27.9375 161.4375 C-27.83373047 162.14455078 -27.72996094 162.85160156 -27.62304688 163.58007812 C-27.37310837 165.38135907 -27.18198686 167.19059041 -27 169 C-29.23691225 171.23691225 -34.86457684 170.24971554 -37.95849609 170.25097656 C-53.22935037 170.0570423 -68.4397333 167.83498055 -83.1484375 163.76953125 C-85.8295588 162.91315247 -85.8295588 162.91315247 -88 163 C-88 163.66 -88 164.32 -88 165 C-87.2678125 165.27328125 -86.535625 165.5465625 -85.78125 165.828125 C-83.14139057 166.94042532 -80.91131814 168.21402337 -78.5 169.75 C-66.04701593 177.31403477 -53.05690515 181.48577371 -39 185 C-38.34 190.61 -37.68 196.22 -37 202 C-35.35 202 -33.7 202 -32 202 C-32 202.33 -32 202.66 -32 203 C-56.5669082 204.09852029 -84.1453398 190.13113343 -102 174 C-126.41617078 151.5847929 -142.84291017 121.68277138 -145.27734375 88.18359375 C-145.57553869 76.93568067 -143.54854927 70.68463625 -135.79296875 62.4609375 C-129.46997333 56.88962685 -121.88803527 53.00306692 -114 50.125 C-109.39534356 48.18664278 -107.87468269 45.0781341 -105.5859375 40.78515625 C-94.51684571 21.34608619 -73.90183769 6.8335529 -52.60546875 0.6484375 C-34.93250268 -4.05486802 -17.72227139 -4.52573518 0 0 Z M-125 77 C-127.51250583 80.76875875 -127.53016086 82.53150134 -127 87 C-125.55150841 89.38636384 -124.00063942 90.99936058 -122 93 C-121.67 93 -121.34 93 -121 93 C-120.34 86.4 -119.68 79.8 -119 73 C-121.26412899 73 -123.39260667 75.62783496 -125 77 Z " fill="#0AFC0A" transform="translate(181,40)"/>
<path d="M0 0 C0.8515625 2.3984375 0.8515625 2.3984375 1.625 5.375 C2.01558594 6.84066406 2.01558594 6.84066406 2.4140625 8.3359375 C3 11 3 11 3 14 C3.82242188 13.95359375 4.64484375 13.9071875 5.4921875 13.859375 C14.27413658 13.57543207 21.45008941 14.04794456 28.2890625 19.98828125 C35.37153075 27.44418874 37.53826879 33.79902572 37.3046875 44.01171875 C36.86924225 48.28243176 35.67072188 52.06186986 34 56 C34.845625 56.20625 35.69125 56.4125 36.5625 56.625 C44.22321771 59.68928709 48.12196207 64.93825083 51.84375 72.1640625 C53.48796455 76.19683197 53.85777185 79.66204151 54 84 C51.6263603 84.50734284 49.25142575 85.00602386 46.875 85.5 C46.20984375 85.64308594 45.5446875 85.78617187 44.859375 85.93359375 C40.83943578 86.7612283 37.10095101 87.15330658 33 87 C32.91363281 86.32453125 32.82726562 85.6490625 32.73828125 84.953125 C32.07714419 80.75581451 31.5972674 77.76015851 28.9375 74.375 C21.6253822 70.95230656 13.83113776 73.50387709 6.33203125 75.24609375 C3.23107951 75.94771589 0.14037225 76.50916792 -3 77 C-2.7834375 77.59167969 -2.566875 78.18335938 -2.34375 78.79296875 C-2.0653125 79.58316406 -1.786875 80.37335938 -1.5 81.1875 C-1.2215625 81.96480469 -0.943125 82.74210937 -0.65625 83.54296875 C0.0353168 86.13222779 0.11370917 88.33257238 0 91 C-2.91672884 91.02700675 -5.83320677 91.04684237 -8.75 91.0625 C-9.575 91.07087891 -10.4 91.07925781 -11.25 91.08789062 C-12.44882813 91.09272461 -12.44882813 91.09272461 -13.671875 91.09765625 C-14.4050293 91.10289307 -15.13818359 91.10812988 -15.89355469 91.11352539 C-18.07949429 90.99571571 -19.92773984 90.70836891 -22 90 C-25.50765509 83.94685909 -26.74173654 76.31138582 -28.35058594 69.56958008 C-29.98872485 62.78950514 -32.00891155 56.13691635 -34.06982422 49.47485352 C-34.44518311 48.25366821 -34.44518311 48.25366821 -34.828125 47.0078125 C-35.0540332 46.28223145 -35.27994141 45.55665039 -35.51269531 44.80908203 C-36 43 -36 43 -36 41 C-41.94 41.495 -41.94 41.495 -48 42 C-50.09715785 38.85426323 -50.52004559 36.98543749 -51.125 33.3125 C-51.29257813 32.31863281 -51.46015625 31.32476562 -51.6328125 30.30078125 C-51.75398438 29.54152344 -51.87515625 28.78226563 -52 28 C-49.2518872 27.15996552 -46.50180419 26.32777849 -43.75 25.5 C-42.97269531 25.26152344 -42.19539063 25.02304688 -41.39453125 24.77734375 C-40.64042969 24.55175781 -39.88632813 24.32617188 -39.109375 24.09375 C-38.07248535 23.77954102 -38.07248535 23.77954102 -37.01464844 23.45898438 C-35 23 -35 23 -31 23 C-31.28875 22.08476563 -31.5775 21.16953125 -31.875 20.2265625 C-32.24625 19.03804687 -32.6175 17.84953125 -33 16.625 C-33.37125 15.44164063 -33.7425 14.25828125 -34.125 13.0390625 C-35 10 -35 10 -35 8 C-33.56445975 7.49440092 -32.1264798 6.9957251 -30.6875 6.5 C-29.48673828 6.08234375 -29.48673828 6.08234375 -28.26171875 5.65625 C-26 5 -26 5 -23 5 C-19.55580866 14.41002278 -19.55580866 14.41002278 -20 19 C-18.9275 18.67 -17.855 18.34 -16.75 18 C-13 17 -13 17 -9 17 C-9.28875 16.08476563 -9.5775 15.16953125 -9.875 14.2265625 C-10.24625 13.03804687 -10.6175 11.84953125 -11 10.625 C-11.37125 9.44164063 -11.7425 8.25828125 -12.125 7.0390625 C-13 4 -13 4 -13 2 C-3.96875 -1.984375 -3.96875 -1.984375 0 0 Z " fill="#FAFDFA" transform="translate(154,68)"/>
<path d="M0 0 C0.18451025 11.52164009 0.18451025 11.52164009 -1 17 C1.97 16.34 4.94 15.68 8 15 C6.00773649 23.85450449 -0.88106076 29.45804105 -8.1484375 34.27734375 C-18.36639361 40.45010901 -28.67230596 44.477437 -40 48 C-40.65935547 48.2357373 -41.31871094 48.47147461 -41.99804688 48.71435547 C-48.50432865 51.02470712 -55.09749354 52.35568665 -61.875 53.625 C-62.98230469 53.8415625 -64.08960938 54.058125 -65.23046875 54.28125 C-100.04096541 60.90792504 -146.47261421 60.93707062 -177 41 C-183.83511313 35.90921532 -189.73669954 30.01233121 -193 22 C-193.1484375 19.203125 -193.1484375 19.203125 -193 17 C-192.42636719 17.3403125 -191.85273438 17.680625 -191.26171875 18.03125 C-175.66579657 26.92968208 -159.5893983 32.55750824 -142 36 C-141.20577637 36.16371094 -140.41155273 36.32742187 -139.59326172 36.49609375 C-114.59934063 41.52919456 -89.07662815 39.13631628 -64 36 C-64.16371094 35.13117188 -64.32742187 34.26234375 -64.49609375 33.3671875 C-64.96769197 30.21588773 -65.10128487 27.30535937 -65.0625 24.125 C-65.05347656 23.15820312 -65.04445313 22.19140625 -65.03515625 21.1953125 C-65.02355469 20.47085938 -65.01195312 19.74640625 -65 19 C-64.25766113 18.86537354 -63.51532227 18.73074707 -62.75048828 18.59204102 C-41.96496992 14.74801263 -21.93650358 9.6354425 -2.65332031 0.72119141 C-1 0 -1 0 0 0 Z " fill="#0B1B30" transform="translate(252,136)"/>
<path d="M0 0 C1.28003906 0.29003906 1.28003906 0.29003906 2.5859375 0.5859375 C25.49863194 6.44732445 43.43670976 22.68645347 57.3125 41.0625 C59.69608858 45.21170974 61.30487663 49.5325297 63 54 C63.58927574 55.49162556 64.18058873 56.98244719 64.7734375 58.47265625 C65.4116331 60.08586837 66.04965269 61.69915013 66.6875 63.3125 C66.99727783 64.08948242 67.30705566 64.86646484 67.6262207 65.66699219 C70.47986191 72.94625561 71.13804314 79.01993437 71.0625 86.8125 C71.05798828 87.69615234 71.05347656 88.57980469 71.04882812 89.49023438 C71.03709866 91.66018559 71.01916495 93.83010172 71 96 C69.39967863 96.84069415 67.79458829 97.67231505 66.1875 98.5 C65.29417969 98.9640625 64.40085938 99.428125 63.48046875 99.90625 C61 101 61 101 58 101 C57.99589111 100.41734375 57.99178223 99.8346875 57.98754883 99.234375 C57.6796451 74.16854838 51.10032359 53.057222 33.47265625 34.3125 C14.97224885 16.49125586 -7.257649 11.31727194 -32.21484375 11.6953125 C-39.7677889 11.94396067 -46.0272858 12.92405668 -53 16 C-53.6379248 16.27908203 -54.27584961 16.55816406 -54.93310547 16.84570312 C-77.06372045 26.7141241 -92.15965363 41.56024455 -101.78515625 63.82421875 C-106.64657244 76.53267973 -106.68816439 89.55661192 -107 103 C-111.92628762 101.67831308 -116.61493343 99.93855465 -120 96 C-120.92157325 92.87830132 -120.80184183 89.97862656 -120.625 86.75 C-120.61855469 85.94175781 -120.61210938 85.13351563 -120.60546875 84.30078125 C-120.44488666 78.39702791 -119.02565529 73.50433813 -117 68 C-116.55040117 66.56714529 -116.11133966 65.13093574 -115.68359375 63.69140625 C-115.47669922 63.00755859 -115.26980469 62.32371094 -115.05664062 61.61914062 C-114.63600626 60.22189144 -114.21948226 58.82339961 -113.80664062 57.42382812 C-112.22163676 52.22163676 -112.22163676 52.22163676 -110 50 C-109.56945312 48.78183594 -109.13890625 47.56367187 -108.6953125 46.30859375 C-107.10994562 41.91063918 -104.82567814 38.65189512 -101.875 35.0625 C-101.38563965 34.45768799 -100.8962793 33.85287598 -100.39208984 33.22973633 C-75.85566272 3.30327457 -37.67471996 -9.62099054 0 0 Z " fill="#0ADD0A" transform="translate(181,40)"/>
<path d="M0 0 C33.12827081 10.95213642 33.12827081 10.95213642 40.5625 25.3125 C47.53888403 43.20844164 41.14364343 64.07447868 34 81 C27.02099556 96.36478951 17.62755726 109.810725 6 122 C2.70342053 119.80228035 2.53375279 119.4232115 1.578125 115.82421875 C1.35769531 114.99599609 1.13726562 114.16777344 0.91015625 113.31445312 C0.69230469 112.44755859 0.47445312 111.58066406 0.25 110.6875 C0.01667969 109.83220703 -0.21664062 108.97691406 -0.45703125 108.09570312 C-2.81049018 98.99895021 -0.28317364 94.0964066 4 86 C4.6496875 84.6696875 4.6496875 84.6696875 5.3125 83.3125 C7.01538015 80.9789235 8.72832043 79.47141761 10.9375 77.625 C14.7651115 74.4095249 16.80770396 71.47228393 19 67 C19.33 66.34 19.66 65.68 20 65 C15.545 65.99 15.545 65.99 11 67 C11.33 57.76 11.66 48.52 12 39 C12.33 39 12.66 39 13 39 C13 41.97 13 44.94 13 48 C14.62957312 46.90259375 16.25351228 45.79681808 17.875 44.6875 C19.23238281 43.76517578 19.23238281 43.76517578 20.6171875 42.82421875 C23.19971385 41.05086051 23.19971385 41.05086051 25 38 C25.39349043 34.56921411 25.39349043 34.56921411 24 31 C20.43221754 27.64867296 16.85398858 25.10974492 11.8984375 24.81640625 C10.94195312 24.54699219 9.98546875 24.27757813 9 24 C7.58825185 21.33336461 6.68004448 19.15150788 5.8125 16.3125 C5.34294482 14.89089905 4.87032749 13.47030557 4.39453125 12.05078125 C4.05736084 11.02138428 4.05736084 11.02138428 3.71337891 9.97119141 C2.70934887 7.19687979 1.33517598 4.62702767 0 2 C0 1.34 0 0.68 0 0 Z " fill="#5A6473" transform="translate(240,86)"/>
<path d="M0 0 C0 4.0077205 -1.34061256 5.06044298 -4 8 C-15.9131783 18.27188903 -29.08685862 25.2381306 -44 30 C-44.8971875 30.33257812 -45.794375 30.66515625 -46.71875 31.0078125 C-65.71198672 36.75100551 -88.15565916 36.00355047 -107 30 C-108.13953125 29.63777344 -109.2790625 29.27554688 -110.453125 28.90234375 C-121.03343678 25.13278823 -131.96286769 19.69367326 -141 13 C-141.33 12.01 -141.66 11.02 -142 10 C-135.88900907 10.93591753 -129.87348403 11.99464796 -123.875 13.5 C-98.09769727 19.50961969 -70.06436567 18.28337352 -44.25 13.375 C-43.5574411 13.24572113 -42.8648822 13.11644226 -42.15133667 12.98324585 C-31.33679202 10.94250459 -21.1548234 8.10800409 -11.00830078 3.80712891 C-7.40179109 2.35768555 -3.7002087 1.18516028 0 0 Z " fill="#0A1C30" transform="translate(234,192)"/>
<path d="M0 0 C1.19367188 -0.01160156 2.38734375 -0.02320313 3.6171875 -0.03515625 C11.2173924 -0.01021028 17.80091143 0.95344775 25 3.375 C26.15371094 3.75140625 27.30742187 4.1278125 28.49609375 4.515625 C49.83204435 12.56265019 66.31060241 26.58104384 75.95922852 47.44604492 C80.85929412 58.43624804 83.49062231 68.44537992 83.1875 80.5625 C83.17396484 81.60986328 83.16042969 82.65722656 83.14648438 83.73632812 C83.1115968 86.28312124 83.0625887 88.82876325 83 91.375 C80.03 92.365 80.03 92.365 77 93.375 C76.99589111 92.70146484 76.99178223 92.02792969 76.98754883 91.33398438 C76.7536362 69.37239585 73.59309494 47.6171406 57.6953125 30.9375 C37.69219274 12.50144492 17.82726584 6.59358454 -9.08154297 7.25195312 C-23.5716181 7.86287816 -38.06337841 14.97595333 -49 24.375 C-49.66128906 24.89449219 -50.32257813 25.41398437 -51.00390625 25.94921875 C-64.90945118 37.26891282 -74.05819991 56.66146805 -76 74.375 C-76.38651462 81.37874282 -76.2465513 88.36883394 -76 95.375 C-77.98 94.715 -79.96 94.055 -82 93.375 C-82.84480598 67.43295789 -79.01312182 46.11079043 -61 26.375 C-60.20916016 25.46427734 -60.20916016 25.46427734 -59.40234375 24.53515625 C-52.05084506 16.56952744 -42.71748936 10.84251714 -32.875 6.5 C-31.94506226 6.08911133 -31.94506226 6.08911133 -30.99633789 5.66992188 C-20.67781306 1.34785821 -11.17517566 -0.10861402 0 0 Z " fill="#F2FDF2" transform="translate(156,50.625)"/>
<path d="M0 0 C1 3 1 3 0.06640625 5.56640625 C-1.5387068 8.76412497 -3.23631973 11.88695228 -5 15 C-5.45375 15.90105469 -5.9075 16.80210937 -6.375 17.73046875 C-12.62186781 27.80354309 -25.2849213 29.91526467 -36 33 C-37.12019531 33.33644531 -38.24039063 33.67289063 -39.39453125 34.01953125 C-42.24999464 34.80133455 -45.09650089 35.41930018 -48 36 C-48.75506836 36.15952148 -49.51013672 36.31904297 -50.28808594 36.48339844 C-63.879731 39.3293582 -77.12222051 40.71620083 -91 41 C-91.33 35.72 -91.66 30.44 -92 25 C-93.98 25 -95.96 25 -98 25 C-98 24.67 -98 24.34 -98 24 C-96.79561279 23.94839722 -96.79561279 23.94839722 -95.56689453 23.89575195 C-62.9498775 22.40009036 -27.88565856 18.59043904 0 0 Z " fill="#085724" transform="translate(244,169)"/>
<path d="M0 0 C4.24936603 -0.26778758 6.91914543 -0.14927665 10.29296875 2.6015625 C13.76300903 6.24510479 13.93542121 7.97021774 14.109375 12.890625 C14.15126953 14.01210937 14.19316406 15.13359375 14.23632812 16.2890625 C14.27564453 17.4646875 14.31496094 18.6403125 14.35546875 19.8515625 C14.39865234 21.03492188 14.44183594 22.21828125 14.48632812 23.4375 C14.59264301 26.36706578 14.69467517 29.29671838 14.79296875 32.2265625 C-0.30717025 39.776632 -26.64097426 36.5796482 -43.20703125 36.2265625 C-43.20703125 35.8965625 -43.20703125 35.5665625 -43.20703125 35.2265625 C-38.91703125 35.2265625 -34.62703125 35.2265625 -30.20703125 35.2265625 C-30.53703125 33.5146875 -30.86703125 31.8028125 -31.20703125 30.0390625 C-31.93812658 26.24650549 -32.20703125 23.14884955 -32.20703125 19.2265625 C-27.91703125 19.2265625 -23.62703125 19.2265625 -19.20703125 19.2265625 C-19.70203125 17.4734375 -20.19703125 15.7203125 -20.70703125 13.9140625 C-21.57460733 10.84139721 -22.20703125 8.426784 -22.20703125 5.2265625 C-14.77497944 2.82371868 -7.77717893 0.79836527 0 0 Z " fill="#06711E" transform="translate(173.20703125,139.7734375)"/>
<path d="M0 0 C0.18451025 11.52164009 0.18451025 11.52164009 -1 17 C-0.34 17.33 0.32 17.66 1 18 C-19.79673958 26.37992162 -41.5235994 33.96424468 -64 36 C-65.22517308 30.33357449 -65.09228867 24.76291482 -65 19 C-64.25766113 18.86537354 -63.51532227 18.73074707 -62.75048828 18.59204102 C-41.96496992 14.74801263 -21.93650358 9.6354425 -2.65332031 0.72119141 C-1 0 -1 0 0 0 Z " fill="#094826" transform="translate(252,136)"/>
<path d="M0 0 C-0.78375 0.598125 -1.5675 1.19625 -2.375 1.8125 C-5.14574323 3.91085249 -5.14574323 3.91085249 -7 7 C-6.34 7 -5.68 7 -5 7 C-4.63762737 8.62318979 -4.28534843 10.2486358 -3.9375 11.875 C-3.64166016 13.23238281 -3.64166016 13.23238281 -3.33984375 14.6171875 C-3 17 -3 17 -4 19 C-14.40639276 21.98754957 -24.80103152 23.06369857 -35.5625 23.1875 C-36.62561401 23.20719849 -36.62561401 23.20719849 -37.71020508 23.22729492 C-42.77648162 23.23492928 -47.12593933 22.38710613 -52 21 C-52.33848652 19.10507994 -52.67056911 17.20901534 -53 15.3125 C-53.185625 14.25675781 -53.37125 13.20101562 -53.5625 12.11328125 C-53.95160453 9.34438562 -54.03305658 6.78708277 -54 4 C-53.1342334 4.01571045 -52.2684668 4.0314209 -51.37646484 4.04760742 C-48.0923842 4.09944751 -44.80875258 4.13668842 -41.52441406 4.16479492 C-40.11646565 4.17966762 -38.7085617 4.19997219 -37.30078125 4.22631836 C-25.88663091 4.43421895 -15.74953272 3.06112694 -4.75 -0.25 C-2 -1 -2 -1 0 0 Z " fill="#059217" transform="translate(196,221)"/>
<path d="M0 0 C4.21671249 1.31968647 8.09429114 2.93855421 12.0625 4.875 C21.10507508 9.10725546 30.33242611 11.58310653 40 14 C40.66 19.61 41.32 25.22 42 31 C43.65 31 45.3 31 47 31 C47 31.33 47 31.66 47 32 C41.08856754 32.26433235 35.86303265 31.32039385 30.125 29.9375 C29.21403564 29.7206958 28.30307129 29.5038916 27.36450195 29.28051758 C18.51861447 27.06615942 10.28484871 23.76781455 2 20 C1.66254646 17.60468244 1.3299171 15.20885732 1 12.8125 C0.90460938 12.13896484 0.80921875 11.46542969 0.7109375 10.77148438 C0.21675387 7.15335423 -0.11346131 3.65203599 0 0 Z " fill="#06BF10" transform="translate(102,211)"/>
<path d="M0 0 C1.13953125 0.12117187 2.2790625 0.24234375 3.453125 0.3671875 C15.29778204 1.6225014 27.14702662 2.82594363 39 4 C39.36086872 6.47836284 39.71398157 8.95739787 40.0625 11.4375 C40.16626953 12.14455078 40.27003906 12.85160156 40.37695312 13.58007812 C40.62689163 15.38135907 40.81801314 17.19059041 41 19 C39.21238236 20.78761764 36.80496586 20.16592033 34.42333984 20.18945312 C33.6442627 20.18880859 32.86518555 20.18816406 32.0625 20.1875 C31.2679541 20.18814453 30.4734082 20.18878906 29.65478516 20.18945312 C21.02740481 20.11491852 12.54362431 19.13107083 4 18 C3.96261719 16.86820313 3.92523438 15.73640625 3.88671875 14.5703125 C3.82106918 13.08850795 3.75462149 11.60673861 3.6875 10.125 C3.66494141 9.37863281 3.64238281 8.63226563 3.61914062 7.86328125 C3.52188055 5.900396 3.26957706 3.94671678 3 2 C2.01 1.34 1.02 0.68 0 0 Z " fill="#03B60E" transform="translate(113,190)"/>
<path d="M0 0 C3.91771408 3.16751351 5.80848291 5.30826567 6.375 10.3125 C5.89030823 15.07863572 4.66080892 15.98577552 1 19 C-1.75303481 20.37442172 -4.57896189 21.35647803 -7.5 22.3125 C-8.24636719 22.57611328 -8.99273437 22.83972656 -9.76171875 23.11132812 C-13.61151141 24.42298315 -16.87742136 25.35172794 -21 25 C-21.86656998 22.25336296 -22.71851786 19.5035757 -23.5625 16.75 C-23.80935547 15.97269531 -24.05621094 15.19539063 -24.31054688 14.39453125 C-24.53935547 13.64042969 -24.76816406 12.88632813 -25.00390625 12.109375 C-25.32597046 11.07248535 -25.32597046 11.07248535 -25.65454102 10.01464844 C-26.0491764 7.71321296 -25.71084423 6.20383318 -25 4 C-22.33580182 3.32184046 -19.66934242 2.65734223 -17 2 C-16.25621094 1.80921875 -15.51242188 1.6184375 -14.74609375 1.421875 C-9.69847879 0.19289049 -5.19878755 -0.39257295 0 0 Z " fill="#04DC04" transform="translate(166,101)"/>
<path d="M0 0 C0.495 2.97 0.495 2.97 1 6 C2.98 6 4.96 6 7 6 C6.38875598 11.50119617 6.38875598 11.50119617 4.73046875 13.62890625 C-3.0238923 19.7728808 -19.5257769 17.66571915 -29 18 C-29.33 12.72 -29.66 7.44 -30 2 C-31.98 2 -33.96 2 -36 2 C-36 1.67 -36 1.34 -36 1 C-31.67723449 0.68831529 -27.35396678 0.38544475 -23.0300293 0.09057617 C-21.56046084 -0.01086822 -20.09105381 -0.11468083 -18.62182617 -0.22094727 C-16.50477923 -0.37364994 -14.38728985 -0.5177071 -12.26953125 -0.66015625 C-10.99698486 -0.74918213 -9.72443848 -0.83820801 -8.41333008 -0.92993164 C-5.38589805 -0.99207834 -2.91940015 -0.74387389 0 0 Z " fill="#076920" transform="translate(182,192)"/>
<path d="M0 0 C4.24936603 -0.26778758 6.91914543 -0.14927665 10.29296875 2.6015625 C13.51091667 5.98040782 13.9199963 7.3346337 13.85546875 11.8515625 C13.84644531 12.66882813 13.83742187 13.48609375 13.828125 14.328125 C13.81652344 14.95460937 13.80492187 15.58109375 13.79296875 16.2265625 C2.80131205 17.43353546 -8.16839543 18.54227512 -19.20703125 19.2265625 C-19.71174322 17.45706638 -20.2106381 15.68591027 -20.70703125 13.9140625 C-20.98546875 12.92792969 -21.26390625 11.94179687 -21.55078125 10.92578125 C-22.20703125 8.2265625 -22.20703125 8.2265625 -22.20703125 5.2265625 C-14.77497944 2.82371868 -7.77717893 0.79836527 0 0 Z " fill="#03DB03" transform="translate(173.20703125,139.7734375)"/>
<path d="M0 0 C9.96753703 -0.27644941 19.15867232 0.51451658 29 2 C29.66 7.28 30.32 12.56 31 18 C19.78461253 18.20127315 9.03691812 18.25572049 -2 16 C-0.68 15.67 0.64 15.34 2 15 C1.855625 14.25234375 1.71125 13.5046875 1.5625 12.734375 C1.376875 11.74953125 1.19125 10.7646875 1 9.75 C0.814375 8.77546875 0.62875 7.8009375 0.4375 6.796875 C0 4 0 4 0 0 Z " fill="#05A613" transform="translate(112,157)"/>
<path d="M0 0 C1 3 1 3 0.06640625 5.56640625 C-1.5387068 8.76412497 -3.23631973 11.88695228 -5 15 C-5.45375 15.90105469 -5.9075 16.80210937 -6.375 17.73046875 C-12.53183515 27.65836543 -25.31909606 30.15713455 -36 33 C-37.99098432 33.38352645 -39.9879643 33.74935391 -42 34 C-40.94425781 33.17048828 -40.94425781 33.17048828 -39.8671875 32.32421875 C-36.87686251 29.90018147 -33.97743664 27.3957097 -31.125 24.8125 C-30.59108643 24.33127686 -30.05717285 23.85005371 -29.50708008 23.35424805 C-26.45728501 20.54294297 -24.00384693 17.77799566 -21.6875 14.3125 C-17.78892584 8.90699568 -12.17817968 6.48188122 -6.328125 3.62890625 C-2.97409697 2.07839037 -2.97409697 2.07839037 0 0 Z " fill="#094227" transform="translate(244,169)"/>
<path d="M0 0 C-0.78375 0.598125 -1.5675 1.19625 -2.375 1.8125 C-5.14574323 3.91085249 -5.14574323 3.91085249 -7 7 C-6.34 7 -5.68 7 -5 7 C-4.63762737 8.62318979 -4.28534843 10.2486358 -3.9375 11.875 C-3.64166016 13.23238281 -3.64166016 13.23238281 -3.33984375 14.6171875 C-3 17 -3 17 -4 19 C-10.87538324 21.37994035 -17.77238766 21.45636906 -25 21 C-26.99616554 19.00383446 -26.40983427 15.18298037 -26.5625 12.4375 C-26.60568359 11.72658203 -26.64886719 11.01566406 -26.69335938 10.28320312 C-26.79971777 8.52238088 -26.90038846 6.7612168 -27 5 C-25.78183594 4.73445312 -24.56367188 4.46890625 -23.30859375 4.1953125 C-21.6848706 3.83865655 -20.06117409 3.48187926 -18.4375 3.125 C-17.63763672 2.95097656 -16.83777344 2.77695313 -16.01367188 2.59765625 C-12.30816476 1.78093223 -8.66195551 0.92366368 -5.03515625 -0.1953125 C-2 -1 -2 -1 0 0 Z " fill="#11682A" transform="translate(196,221)"/>
<path d="M0 0 C2.20581448 2.20581448 2.51587547 3.25780129 3.2890625 6.2109375 C3.61777344 7.46003906 3.61777344 7.46003906 3.953125 8.734375 C4.17484375 9.60578125 4.3965625 10.4771875 4.625 11.375 C4.96917969 12.67050781 4.96917969 12.67050781 5.3203125 13.9921875 C6.32273557 17.85867649 7 20.96386006 7 25 C4.76953125 27.5078125 4.76953125 27.5078125 1.8125 30.125 C0.36810547 31.42824219 0.36810547 31.42824219 -1.10546875 32.7578125 C-3.73851466 34.7974459 -5.85819747 35.97762185 -9 37 C-9.66844112 34.29612556 -10.28426916 31.59594207 -10.875 28.875 C-11.06835938 28.11445313 -11.26171875 27.35390625 -11.4609375 26.5703125 C-11.94141332 24.2480127 -12.23518414 22.36351718 -12 20 C-10.69765666 18.07794639 -9.3419112 16.7801805 -7.53515625 15.33007812 C-5.2056294 13.31174761 -4.19572232 10.79001874 -3 8 C-3.66 7.67 -4.32 7.34 -5 7 C-3.35 4.69 -1.7 2.38 0 0 Z " fill="#3C4B59" transform="translate(237,185)"/>
<path d="M0 0 C2.91819239 0.61846464 5.83441022 1.24448135 8.75 1.875 C9.575 2.04902344 10.4 2.22304687 11.25 2.40234375 C12.04921875 2.57636719 12.8484375 2.75039062 13.671875 2.9296875 C14.4050293 3.08679199 15.13818359 3.24389648 15.89355469 3.40576172 C18.17012618 4.04799341 20.01276678 4.70665153 22 6 C22.46709352 8.66482841 22.69572473 10.95070966 22.75 13.625 C22.77964844 14.33140625 22.80929688 15.0378125 22.83984375 15.765625 C22.91055357 17.50980047 22.95754035 19.25490827 23 21 C17.4978184 21.23136637 12.86146222 20.4350346 7.5625 19 C6.46518555 18.71382812 6.46518555 18.71382812 5.34570312 18.421875 C3.56180334 17.95549597 1.78060155 17.47881722 0 17 C0.33 16.34 0.66 15.68 1 15 C0.91089842 12.44192238 0.76705754 9.9237399 0.5625 7.375 C0.51029297 6.66859375 0.45808594 5.9621875 0.40429688 5.234375 C0.27458793 3.48920013 0.13795046 1.74454275 0 0 Z " fill="#01E006" transform="translate(95,186)"/>
<path d="M0 0 C13.37677009 4.36547287 13.37677009 4.36547287 18 8 C20.46396381 13.76504353 20.03670394 19.83373738 20 26 C21.98 26.33 23.96 26.66 26 27 C21.46978157 28.46643271 18.24771579 26.89197291 14 25.1875 C13.2884375 24.91357422 12.576875 24.63964844 11.84375 24.35742188 C10.47656775 23.82559818 9.11511144 23.27874353 7.76074219 22.71508789 C5.91168739 21.93394808 5.91168739 21.93394808 3.578125 21.2578125 C1.33004518 19.46602611 1.2660954 17.48831456 0.9375 14.73632812 C0.875625 14.06021484 0.81375 13.38410156 0.75 12.6875 C0.67265625 12.02298828 0.5953125 11.35847656 0.515625 10.67382812 C0.12025803 7.1049352 -0.08330899 3.58922911 0 0 Z " fill="#0CDE11" transform="translate(102,211)"/>
<path d="M0 0 C0.66 0.33 1.32 0.66 2 1 C1.73896484 2.02673828 1.73896484 2.02673828 1.47265625 3.07421875 C0.92653455 6.45475722 1.12777331 9.40550643 1.4375 12.8125 C1.53933594 13.97394531 1.64117187 15.13539063 1.74609375 16.33203125 C1.87177734 17.65267578 1.87177734 17.65267578 2 19 C-0.2235486 19.99793249 -2.44921571 20.99026977 -4.6796875 21.97265625 C-6.39902367 22.73391115 -8.10858028 23.51733746 -9.8125 24.3125 C-12 25 -12 25 -16 24 C-16.33 20.7 -16.66 17.4 -17 14 C-17.66 14 -18.32 14 -19 14 C-18.875 11.6875 -18.875 11.6875 -18 9 C-16.04060036 7.9226175 -14.0313019 6.93477944 -12 6 C-10.96359375 5.45859375 -9.9271875 4.9171875 -8.859375 4.359375 C-7.83328125 3.82828125 -6.8071875 3.2971875 -5.75 2.75 C-4.19539062 1.93789062 -4.19539062 1.93789062 -2.609375 1.109375 C-1.74828125 0.74328125 -0.8871875 0.3771875 0 0 Z " fill="#1A5F34" transform="translate(208,214)"/>
<path d="M0 0 C0.36571706 5.7295672 -0.42762694 10.8023244 -3 16 C-6.5397007 18.35980046 -8.99106288 18.58600808 -13.1875 19.125 C-14.45980469 19.29257813 -15.73210937 19.46015625 -17.04296875 19.6328125 C-18.01878906 19.75398438 -18.99460938 19.87515625 -20 20 C-20.75712312 15.981882 -21.11233839 12.21174825 -21.0625 8.125 C-21.05347656 7.15820312 -21.04445312 6.19140625 -21.03515625 5.1953125 C-21.02355469 4.47085938 -21.01195312 3.74640625 -21 3 C-18.6263603 2.49265716 -16.25142575 1.99397614 -13.875 1.5 C-13.20984375 1.35691406 -12.5446875 1.21382812 -11.859375 1.06640625 C-7.83943578 0.2387717 -4.10095101 -0.15330658 0 0 Z " fill="#265741" transform="translate(208,152)"/>
<path d="M0 0 C0.495 7.92 0.495 7.92 1 16 C-1.9615696 17.4807848 -4.83506295 17.35314037 -8.125 17.5625 C-9.40632812 17.64628906 -10.68765625 17.73007813 -12.0078125 17.81640625 C-12.99523437 17.87699219 -13.98265625 17.93757813 -15 18 C-15.94350133 13.18814322 -16.0964339 10.4258049 -14 6 C-13.63128912 4.34080104 -13.28718326 2.6752357 -13 1 C-8.53326804 0.28532289 -4.56683437 0 0 0 Z " fill="#086521" transform="translate(187,156)"/>
<path d="M0 0 C4.85313132 -0.08367468 9.20713023 0.1279449 14 1 C14.36086872 3.47836284 14.71398157 5.95739787 15.0625 8.4375 C15.16626953 9.14455078 15.27003906 9.85160156 15.37695312 10.58007812 C15.62689163 12.38135907 15.81801314 14.19059041 16 16 C15 17 15 17 13.23413086 17.11352539 C12.48526611 17.10828857 11.73640137 17.10305176 10.96484375 17.09765625 C10.15595703 17.09443359 9.34707031 17.09121094 8.51367188 17.08789062 C7.66353516 17.07951172 6.81339844 17.07113281 5.9375 17.0625 C5.08349609 17.05798828 4.22949219 17.05347656 3.34960938 17.04882812 C1.23304337 17.03700373 -0.88348685 17.01906769 -3 17 C-3 16.67 -3 16.34 -3 16 C-1.35 16 0.3 16 2 16 C1.855625 15.34773437 1.71125 14.69546875 1.5625 14.0234375 C0.55372706 9.27379823 -0.25715306 4.88590812 0 0 Z " fill="#059117" transform="translate(138,193)"/>
<path d="M0 0 C4.62 0 9.24 0 14 0 C14.495 8.415 14.495 8.415 15 17 C3.28571429 17.14285714 3.28571429 17.14285714 -2 16 C-0.68 15.67 0.64 15.34 2 15 C1.855625 14.25234375 1.71125 13.5046875 1.5625 12.734375 C1.376875 11.74953125 1.19125 10.7646875 1 9.75 C0.814375 8.77546875 0.62875 7.8009375 0.4375 6.796875 C0 4 0 4 0 0 Z " fill="#03B90E" transform="translate(112,157)"/>
<path d="M0 0 C2.97922593 -0.02683987 5.95821295 -0.04676037 8.9375 -0.0625 C9.78763672 -0.07087891 10.63777344 -0.07925781 11.51367188 -0.08789062 C12.32255859 -0.09111328 13.13144531 -0.09433594 13.96484375 -0.09765625 C14.7137085 -0.10289307 15.46257324 -0.10812988 16.23413086 -0.11352539 C18 0 18 0 19 1 C19.23653523 3.52596259 19.42173692 6.03107207 19.5625 8.5625 C19.60568359 9.27341797 19.64886719 9.98433594 19.69335938 10.71679688 C19.79971777 12.47761912 19.90038846 14.2387832 20 16 C13.565 16.495 13.565 16.495 7 17 C6.67 11.72 6.34 6.44 6 1 C4.02 1 2.04 1 0 1 C0 0.67 0 0.34 0 0 Z " fill="#067C1B" transform="translate(146,193)"/>
<path d="M0 0 C4.29 0 8.58 0 13 0 C13.66 5.28 14.32 10.56 15 16 C10.71 16 6.42 16 2 16 C0 5.625 0 5.625 0 0 Z " fill="#058719" transform="translate(141,159)"/>
<path d="M0 0 C0.66 0.33 1.32 0.66 2 1 C1.67 1.99 1.34 2.98 1 4 C1.49188958 5.93476567 1.98762374 7.86882011 2.51953125 9.79296875 C3.26947422 13.23782874 3.12551908 16.48546581 3 20 C0.03 21.32 -2.94 22.64 -6 24 C-6.47206219 21.27286363 -6.90301402 18.54911939 -7.3125 15.8125 C-7.44978516 15.04357422 -7.58707031 14.27464844 -7.72851562 13.48242188 C-8.04808353 11.22607881 -8.24212092 9.26773667 -8 7 C-5.58104349 3.88158619 -3.26980416 2.17986944 0 0 Z " fill="#285244" transform="translate(216,209)"/>
<path d="M0 0 C-0.66 0 -1.32 0 -2 0 C-1.34 5.61 -0.68 11.22 0 17 C-7.71484375 17.09765625 -7.71484375 17.09765625 -10 17 C-11.99616554 15.00383446 -11.40983427 11.18298037 -11.5625 8.4375 C-11.60568359 7.72658203 -11.64886719 7.01566406 -11.69335938 6.28320312 C-11.79971777 4.52238088 -11.90038846 2.7612168 -12 1 C-3.96428571 -1.27678571 -3.96428571 -1.27678571 0 0 Z " fill="#086F1F" transform="translate(181,225)"/>
<path d="M0 0 C0.66 0.33 1.32 0.66 2 1 C1.82597656 1.68449219 1.65195313 2.36898437 1.47265625 3.07421875 C0.92653455 6.45475722 1.12777331 9.40550643 1.4375 12.8125 C1.53933594 13.97394531 1.64117187 15.13539063 1.74609375 16.33203125 C1.82988281 17.21246094 1.91367188 18.09289062 2 19 C-3.75 22 -3.75 22 -6 22 C-8.34005557 17.31988886 -9.36023014 12.21476008 -9 7 C-6.57636095 3.67615216 -3.92568646 1.35368499 0 0 Z " fill="#215B3C" transform="translate(208,214)"/>
<path d="M0 0 C5.75 1.875 5.75 1.875 8 3 C8.6328125 5.51171875 8.6328125 5.51171875 9.125 8.6875 C9.29257813 9.72261719 9.46015625 10.75773438 9.6328125 11.82421875 C9.99028975 14.91601663 10.06525778 17.89093277 10 21 C11.98 21.33 13.96 21.66 16 22 C12.6844404 23.1127563 10.67838751 22.9007397 7.375 21.8125 C6.21097656 21.45091797 6.21097656 21.45091797 5.0234375 21.08203125 C2.37668511 19.66668296 1.91277776 18.86407308 1 16 C0.7047806 13.22605167 0.49287769 10.5299489 0.375 7.75 C0.33632812 7.00492188 0.29765625 6.25984375 0.2578125 5.4921875 C0.16394892 3.6618476 0.08090282 1.83095857 0 0 Z " fill="#0DD414" transform="translate(112,216)"/>
<path d="M0 0 C-15.3572463 19.84571683 -15.3572463 19.84571683 -23 21 C-23.33 19.02 -23.66 17.04 -24 15 C-23.40832031 14.56429687 -22.81664062 14.12859375 -22.20703125 13.6796875 C-16.85323844 9.69556776 -16.85323844 9.69556776 -12.4375 4.75 C-9.4820889 1.41569004 -4.54956054 -2.27478027 0 0 Z " fill="#284846" transform="translate(226,180)"/>
<path d="M0 0 C2.64 0.33 5.28 0.66 8 1 C8.66 6.61 9.32 12.22 10 18 C11.65 18 13.3 18 15 18 C15 18.33 15 18.66 15 19 C10.17639811 19.19294408 6.50353262 18.75747614 2 17 C0.7017874 11.23918159 -0.25706972 5.91260345 0 0 Z " fill="#10AB1D" transform="translate(134,224)"/>
<path d="M0 0 C5.94 0.99 5.94 0.99 12 2 C10.68 2.33 9.36 2.66 8 3 C8.66 7.95 9.32 12.9 10 18 C6.7 18 3.4 18 0 18 C0.66 17.67 1.32 17.34 2 17 C1.855625 16.443125 1.71125 15.88625 1.5625 15.3125 C0.28453328 10.05863683 -0.19646963 5.40291471 0 0 Z " fill="#02CE0A" transform="translate(104,154)"/>
<path d="M0 0 C2.97 0.99 5.94 1.98 9 3 C9.33 7.95 9.66 12.9 10 18 C7.69 18 5.38 18 3 18 C0.06552643 15.06552643 0.53841577 11.81740544 0.375 7.875 C0.33632812 7.12089844 0.29765625 6.36679688 0.2578125 5.58984375 C0.16348969 3.72696816 0.08065338 1.86351745 0 0 Z " fill="#02CB0A" transform="translate(108,189)"/>
<path d="M0 0 C3.3 0.33 6.6 0.66 10 1 C10.66 6.28 11.32 11.56 12 17 C9.36 17 6.72 17 4 17 C2.61470179 11.54538831 1.7603057 6.63281599 2 1 C1.34 0.67 0.68 0.34 0 0 Z " fill="#04A612" transform="translate(128,192)"/>
<path d="M0 0 C1.65 0 3.3 0 5 0 C5.66 4.95 6.32 9.9 7 15 C9.31 15.33 11.62 15.66 14 16 C14 16.33 14 16.66 14 17 C5.3387414 18.25981943 -3.27001243 18.09020653 -12 18 C-12 17.67 -12 17.34 -12 17 C-7.71 17 -3.42 17 1 17 C0.505 14.710625 0.505 14.710625 0 12.375 C-0.77135828 8.5182086 -1.30379142 4.9492884 -1 1 C-0.67 0.67 -0.34 0.34 0 0 Z " fill="#2C8E3F" transform="translate(164,226)"/>
<path d="M0 0 C2.64 0 5.28 0 8 0 C8.66 5.28 9.32 10.56 10 16 C7.36 16 4.72 16 2 16 C1.34 10.72 0.68 5.44 0 0 Z " fill="#059715" transform="translate(133,159)"/>
<path d="M0 0 C-1.09644087 13.59586682 -1.09644087 13.59586682 -4 19 C-6.4537866 20.50287598 -8.07365805 20.66871601 -11 21 C-9.98501819 16.1593175 -8.8982334 11.34234344 -7.625 6.5625 C-7.30402344 5.32693359 -7.30402344 5.32693359 -6.9765625 4.06640625 C-6 2 -6 2 -4.0234375 0.71484375 C-2 0 -2 0 0 0 Z " fill="#3B4A59" transform="translate(239,142)"/>
<path d="M0 0 C0.33 0 0.66 0 1 0 C1.33 4.95 1.66 9.9 2 15 C-1.21451269 16.60725635 -4.43612536 16.05748185 -8 16 C-8.66 13.69 -9.32 11.38 -10 9 C-9.278125 8.443125 -8.55625 7.88625 -7.8125 7.3125 C-4.92843935 5.01744765 -4.92843935 5.01744765 -2.25 2.25 C-1.5075 1.5075 -0.765 0.765 0 0 Z " fill="#12622D" transform="translate(186,157)"/>
<path d="M0 0 C1.65 0 3.3 0 5 0 C6.80304155 5.30094216 8.50723624 10.60308488 10 16 C7.03 16.33 4.06 16.66 1 17 C-0.22517308 11.33357449 -0.09228867 5.76291482 0 0 Z " fill="#1A5736" transform="translate(187,155)"/>
<path d="M0 0 C3.3 0 6.6 0 10 0 C10.33 5.61 10.66 11.22 11 17 C8.69 17 6.38 17 4 17 C3.87882813 15.85660156 3.75765625 14.71320313 3.6328125 13.53515625 C3.46402679 12.04421583 3.29472953 10.55333327 3.125 9.0625 C3.04636719 8.30775391 2.96773437 7.55300781 2.88671875 6.77539062 C2.66116192 4.84080701 2.33741026 2.91823981 2 1 C1.34 0.67 0.68 0.34 0 0 Z " fill="#06811A" transform="translate(154,226)"/>
<path d="M0 0 C2.97 0.495 2.97 0.495 6 1 C6.66 6.94 7.32 12.88 8 19 C6.68 19 5.36 19 4 19 C4 18.34 4 17.68 4 17 C3.34 17 2.68 17 2 17 C1.66151348 15.10507994 1.32943089 13.20901534 1 11.3125 C0.814375 10.25675781 0.62875 9.20101562 0.4375 8.11328125 C0.04931926 5.35095938 -0.08259976 2.78257957 0 0 Z " fill="#09B515" transform="translate(128,222)"/>
<path d="M0 0 C2.41796875 1.07421875 2.41796875 1.07421875 5 3 C5.92578125 6.14453125 5.92578125 6.14453125 6.3125 9.8125 C6.45300781 11.01519531 6.59351562 12.21789062 6.73828125 13.45703125 C6.97460299 16.65619266 7.05400644 19.79398118 7 23 C6.34 23 5.68 23 5 23 C2.0975684 18.022131 1.3312365 13.7406795 0.8125 8.125 C0.73064453 7.34125 0.64878906 6.5575 0.56445312 5.75 C0.36588325 3.83438471 0.18148253 1.91730958 0 0 Z " fill="#06E909" transform="translate(97,207)"/>
<path d="M0 0 C0.99 0.33 1.98 0.66 3 1 C3.33 2.65 3.66 4.3 4 6 C-2.3618858 8.76081837 -8.09232563 9.63176001 -15 10 C-13.62008374 7.24016749 -11.95648479 6.86388231 -9.1875 5.5625 C-6.48882929 4.29089593 -4.18991709 3.15311415 -1.86328125 1.27734375 C-1.24839844 0.85582031 -0.63351563 0.43429688 0 0 Z " fill="#195735" transform="translate(200,196)"/>
<path d="M0 0 C0.33 1.98 0.66 3.96 1 6 C-0.45365269 7.17249353 -1.91307419 8.33783816 -3.375 9.5 C-4.18710938 10.1496875 -4.99921875 10.799375 -5.8359375 11.46875 C-8 13 -8 13 -10 13 C-10.33 11.02 -10.66 9.04 -11 7 C-9.54634731 5.82750647 -8.08692581 4.66216184 -6.625 3.5 C-5.40683594 2.52546875 -5.40683594 2.52546875 -4.1640625 1.53125 C-2 0 -2 0 0 0 Z " fill="#21523D" transform="translate(213,188)"/>
<path d="M0 0 C1.32 0.33 2.64 0.66 4 1 C4.3396019 2.87387477 4.67138691 4.74916697 5 6.625 C5.185625 7.66914063 5.37125 8.71328125 5.5625 9.7890625 C5.98715797 12.90574865 6.07545206 15.85930812 6 19 C7.98 19.33 9.96 19.66 12 20 C10.3125 20.6875 10.3125 20.6875 8 21 C5.75643706 19.85213059 3.7904233 18.7904233 2 17 C1.599617 14.14471393 1.2481773 11.30263513 0.9375 8.4375 C0.84662109 7.63119141 0.75574219 6.82488281 0.66210938 5.99414062 C0.43752551 3.99652623 0.21826764 1.9983144 0 0 Z " fill="#12CD1B" transform="translate(116,218)"/>
<path d="M0 0 C-3.57729872 4.66132863 -7.10867301 7.73911534 -12 11 C-12.33 8.36 -12.66 5.72 -13 3 C-11.40084119 2.30093058 -9.79544955 1.61610532 -8.1875 0.9375 C-7.29417969 0.55464844 -6.40085938 0.17179688 -5.48046875 -0.22265625 C-3 -1 -3 -1 0 0 Z " fill="#084926" transform="translate(215,184)"/>
<path d="M0 0 C0.66 0.33 1.32 0.66 2 1 C-3.94 6.94 -9.88 12.88 -16 19 C-16.66 18.67 -17.32 18.34 -18 18 C-6.66287016 5.33029613 -6.66287016 5.33029613 0 0 Z " fill="#5DE95D" transform="translate(98,56)"/>
<path d="M0 0 C1.2065625 0.0309375 1.2065625 0.0309375 2.4375 0.0625 C3.0975 2.3725 3.7575 4.6825 4.4375 7.0625 C2.4575 7.3925 0.4775 7.7225 -1.5625 8.0625 C-2.2225 5.7525 -2.8825 3.4425 -3.5625 1.0625 C-2.5625 0.0625 -2.5625 0.0625 0 0 Z " fill="#125F2C" transform="translate(184.5625,189.9375)"/>
<path d="M0 0 C0.33 0.99 0.66 1.98 1 3 C1.66 3.33 2.32 3.66 3 4 C-0.63 4.33 -4.26 4.66 -8 5 C-6.37633534 1.75267068 -3.24612161 1.29844864 0 0 Z " fill="#125B2D" transform="translate(193,201)"/>
<path d="M0 0 C1.9451 2.91765 2.45276317 4.62537285 3 8 C1.68 8.33 0.36 8.66 -1 9 C-1.09765625 2.84765625 -1.09765625 2.84765625 -1 1 C-0.67 0.67 -0.34 0.34 0 0 Z " fill="#095924" transform="translate(190,230)"/>
</svg>
