<?xml version="1.0" encoding="UTF-8"?>
<svg version="1.1" xmlns="http://www.w3.org/2000/svg" width="1017" height="613">
<path d="M0 0 C1.28003906 0.29003906 1.28003906 0.29003906 2.5859375 0.5859375 C23.64925025 5.97422681 42.35198167 20.75270227 55 38 C55.53040894 38.98770386 55.53040894 38.98770386 56.0715332 39.99536133 C59.25886828 45.85059894 62.29545621 47.60888855 68.5625 49.5625 C70.17842027 50.13056892 71.79172166 50.70614132 73.40234375 51.2890625 C74.18722168 51.57168945 74.97209961 51.85431641 75.78076172 52.14550781 C85.14996068 55.75301016 94.23434932 61.54918363 99.375 70.35546875 C106.56759637 86.86347638 100.80442718 106.67753409 94.7890625 122.6328125 C87.99202686 139.7441773 77.68214379 154.73610649 65 168 C64.39027344 168.67289063 63.78054688 169.34578125 63.15234375 170.0390625 C43.32767397 191.1685407 12.77896778 203.18506992 -15.80078125 204.125 C-48.01461385 204.7558434 -79.93873322 194.74282062 -103.60546875 172.33203125 C-104.39566406 171.56246094 -105.18585937 170.79289063 -106 170 C-106.90363281 169.15824219 -107.80726563 168.31648437 -108.73828125 167.44921875 C-130.62129025 146.53475234 -144.57153879 114.8065569 -145.375 84.5 C-145.07989094 74.83791074 -142.45086879 69.520701 -135.79296875 62.4609375 C-129.46997333 56.88962685 -121.88803527 53.00306692 -114 50.125 C-109.39534356 48.18664278 -107.87468269 45.0781341 -105.5859375 40.78515625 C-94.51684571 21.34608619 -73.90183769 6.8335529 -52.60546875 0.6484375 C-34.93250268 -4.05486802 -17.72227139 -4.52573518 0 0 Z M69 69 C69.99 77.25 70.98 85.5 72 94 C77.04456687 91.98217325 80.4763162 90.10471677 84 86 C85.48582895 82.5230496 85.48582895 82.5230496 85 79 C81.58631319 74.22083847 76.26674342 71.4316006 71 69 C70.34 69 69.68 69 69 69 Z M-125 77 C-127.51250583 80.76875875 -127.53016086 82.53150134 -127 87 C-125.55150841 89.38636384 -124.00063942 90.99936058 -122 93 C-121.67 93 -121.34 93 -121 93 C-120.34 86.4 -119.68 79.8 -119 73 C-121.26412899 73 -123.39260667 75.62783496 -125 77 Z " fill="#03DC03" transform="translate(783,89)"/>
<path d="M0 0 C1.28003906 0.29003906 1.28003906 0.29003906 2.5859375 0.5859375 C23.64925025 5.97422681 42.35198167 20.75270227 55 38 C55.53040894 38.98770386 55.53040894 38.98770386 56.0715332 39.99536133 C59.25886828 45.85059894 62.29545621 47.60888855 68.5625 49.5625 C70.17842027 50.13056892 71.79172166 50.70614132 73.40234375 51.2890625 C74.18722168 51.57168945 74.97209961 51.85431641 75.78076172 52.14550781 C85.14996068 55.75301016 94.23434932 61.54918363 99.375 70.35546875 C106.56759637 86.86347638 100.80442718 106.67753409 94.7890625 122.6328125 C87.99202686 139.7441773 77.68214379 154.73610649 65 168 C64.39027344 168.67289063 63.78054688 169.34578125 63.15234375 170.0390625 C50.87722539 183.12209736 32.37425842 194.38193503 15 199 C14.01 199 13.02 199 12 199 C10.57741188 195.17679443 9.75957724 192.08718695 10 188 C9.34 188 8.68 188 8 188 C8.33 186.35 8.66 184.7 9 183 C6.07184491 182.86662852 6.07184491 182.86662852 3.62890625 183.65625 C-14.69185809 188.69737751 -35.94709541 187.75140966 -54 182 C-55.13953125 181.63777344 -56.2790625 181.27554688 -57.453125 180.90234375 C-68.03343678 177.13278823 -78.96286769 171.69367326 -88 165 C-88.33 164.01 -88.66 163.02 -89 162 C-82.72002065 162.97765246 -76.5098271 164.08531467 -70.3125 165.5 C-45.63793325 170.80086112 -20.96973318 169.28544783 4 167 C4.66 164.03 5.32 161.06 6 158 C4.7934375 158.0309375 4.7934375 158.0309375 3.5625 158.0625 C1 158 1 158 0 157 C-0.04080783 155.00041636 -0.04254356 152.99954746 0 151 C-1.32076538 151.21221191 -1.32076538 151.21221191 -2.66821289 151.42871094 C-11.89415847 152.79872804 -20.88401382 153.31386644 -30.20629883 153.26074219 C-32.43273228 153.25002295 -34.65835633 153.26071376 -36.88476562 153.2734375 C-49.8736587 153.28684793 -62.63301817 152.07859811 -75.3125 149.125 C-76.06539307 148.95210449 -76.81828613 148.77920898 -77.59399414 148.60107422 C-94.16099246 144.67595358 -110.17441758 137.62304774 -119.625 122.75 C-121.66262959 119.30516766 -122.26975062 117.00366704 -122 113 C-121.42636719 113.3403125 -120.85273437 113.680625 -120.26171875 114.03125 C-104.66579657 122.92968208 -88.5893983 128.55750824 -71 132 C-70.20577637 132.16371094 -69.41155273 132.32742187 -68.59326172 132.49609375 C-46.40950036 136.96330428 -23.33805721 135.79036495 -1 133 C-0.2260791 132.90444824 0.5478418 132.80889648 1.34521484 132.71044922 C3.23047501 132.47628876 5.11528944 132.23854375 7 132 C6.835 131.236875 6.67 130.47375 6.5 129.6875 C6.0625908 126.46160718 5.94950664 123.51444287 5.96875 120.26953125 C5.97326172 119.28186768 5.97777344 118.2942041 5.98242188 117.27661133 C5.99112305 116.14968872 5.99112305 116.14968872 6 115 C6.79994385 114.84442627 7.5998877 114.68885254 8.42407227 114.52856445 C28.25903787 110.75489195 28.25903787 110.75489195 47.54296875 104.8828125 C50 104 50 104 52 104 C51.86170924 81.33116124 49.15607902 58.83281241 32.6953125 41.5625 C15.94547942 26.12486582 -1.58279212 17.85357051 -24.5625 17.75 C-25.67947266 17.729375 -26.79644531 17.70875 -27.94726562 17.6875 C-38.88041335 17.63679555 -48.56811905 19.70083277 -58.25 24.8125 C-58.93255859 25.1643335 -59.61511719 25.51616699 -60.31835938 25.87866211 C-65.26880637 28.48475269 -69.74976964 31.3473077 -74 35 C-74.66128906 35.51949219 -75.32257812 36.03898437 -76.00390625 36.57421875 C-89.90945118 47.89391282 -99.05819991 67.28646805 -101 85 C-101.38651462 92.00374282 -101.2465513 98.99383394 -101 106 C-107.94388088 105.0175006 -115.66258902 101.73458896 -120 96 C-122.96968517 86.77546802 -120.21904859 76.75011024 -117 68 C-116.53163488 66.60925386 -116.06672047 65.21734027 -115.60546875 63.82421875 C-110.58672348 49.04435719 -104.54079518 37.53433111 -94 26 C-93.40316406 25.32066406 -92.80632813 24.64132813 -92.19140625 23.94140625 C-69.41423302 -0.65339677 -31.4772736 -8.03834911 0 0 Z M69 69 C69.99 77.25 70.98 85.5 72 94 C77.04456687 91.98217325 80.4763162 90.10471677 84 86 C85.48582895 82.5230496 85.48582895 82.5230496 85 79 C81.58631319 74.22083847 76.26674342 71.4316006 71 69 C70.34 69 69.68 69 69 69 Z " fill="#0ADD0A" transform="translate(783,89)"/>
<path d="M0 0 C0.20852314 6.40629424 0.1583195 11.92972642 -2 18 C-0.906875 17.505 0.18625 17.01 1.3125 16.5 C5 15 5 15 8 15 C7.51085474 19.56535579 5.86632543 21.69793332 2.75 25 C1.59757812 26.2375 1.59757812 26.2375 0.421875 27.5 C-1.19902518 29.17318729 -2.86734672 30.80163864 -4.578125 32.3828125 C-7.33259389 35.35941598 -8.79651955 38.20287469 -10.5 41.875 C-12.92512857 46.97569612 -15.50584796 51.55289741 -19 56 C-18.34 56 -17.68 56 -17 56 C-19.33421587 65.62864048 -32.12057898 71.91394045 -40.02099609 76.81738281 C-50.80295657 83.26048873 -61.73422647 86.57809567 -74 89 C-74.77754639 89.1750708 -75.55509277 89.3501416 -76.35620117 89.53051758 C-92.07366164 92.32160415 -109.82667885 90.83401357 -125 86 C-126.13953125 85.63777344 -127.2790625 85.27554688 -128.453125 84.90234375 C-139.03343678 81.13278823 -149.96286769 75.69367326 -159 69 C-159.33 68.01 -159.66 67.02 -160 66 C-153.72002065 66.97765246 -147.5098271 68.08531467 -141.3125 69.5 C-116.63793325 74.80086112 -91.96973318 73.28544783 -67 71 C-66.34 68.03 -65.68 65.06 -65 62 C-65.804375 62.020625 -66.60875 62.04125 -67.4375 62.0625 C-70 62 -70 62 -71 61 C-71.04080783 59.00041636 -71.04254356 56.99954746 -71 55 C-71.88051025 55.14147461 -72.76102051 55.28294922 -73.66821289 55.42871094 C-82.89415847 56.79872804 -91.88401382 57.31386644 -101.20629883 57.26074219 C-103.43273228 57.25002295 -105.65835633 57.26071376 -107.88476562 57.2734375 C-120.8736587 57.28684793 -133.63301817 56.07859811 -146.3125 53.125 C-147.06539307 52.95210449 -147.81828613 52.77920898 -148.59399414 52.60107422 C-165.16099246 48.67595358 -181.17441758 41.62304774 -190.625 26.75 C-192.66262959 23.30516766 -193.26975062 21.00366704 -193 17 C-192.42636719 17.3403125 -191.85273437 17.680625 -191.26171875 18.03125 C-175.66579657 26.92968208 -159.5893983 32.55750824 -142 36 C-141.20577637 36.16371094 -140.41155273 36.32742187 -139.59326172 36.49609375 C-117.40950036 40.96330428 -94.33805721 39.79036495 -72 37 C-71.2260791 36.90444824 -70.4521582 36.80889648 -69.65478516 36.71044922 C-67.76952499 36.47628876 -65.88471056 36.23854375 -64 36 C-64.165 35.236875 -64.33 34.47375 -64.5 33.6875 C-64.9374092 30.46160718 -65.05049336 27.51444287 -65.03125 24.26953125 C-65.02673828 23.28186768 -65.02222656 22.2942041 -65.01757812 21.27661133 C-65.00887695 20.14968872 -65.00887695 20.14968872 -65 19 C-64.25766113 18.86537354 -63.51532227 18.73074707 -62.75048828 18.59204102 C-41.96496992 14.74801263 -21.93650358 9.6354425 -2.65332031 0.72119141 C-1 0 -1 0 0 0 Z " fill="#0B1B30" transform="translate(854,185)"/>
<path d="M0 0 C0 3.02745295 -0.50843472 4.89870676 -1.4609375 7.74609375 C-1.76773438 8.66583984 -2.07453125 9.58558594 -2.390625 10.53320312 C-2.71546875 11.49162109 -3.0403125 12.45003906 -3.375 13.4375 C-3.69210937 14.39205078 -4.00921875 15.34660156 -4.3359375 16.33007812 C-5.69003298 20.3613332 -7.01559167 24.22940693 -9 28 C-9.33 27.34 -9.66 26.68 -10 26 C-10.804375 26.804375 -11.60875 27.60875 -12.4375 28.4375 C-13.625 29.625 -14.8125 30.8125 -16 32 C-16.41029216 36.26703842 -16.44913896 38.34032715 -14 41.9375 C-13.34 42.618125 -12.68 43.29875 -12 44 C-11.67 41.36 -11.34 38.72 -11 36 C-10.67 36 -10.34 36 -10 36 C-10.10183594 36.76183594 -10.20367188 37.52367187 -10.30859375 38.30859375 C-10.4602955 41.990809 -10.26270563 44.51710665 -9 48 C-3.14174305 53.98249749 6.30213875 57.51963048 14.046875 60.24609375 C16 61 16 61 19 63 C19.73046875 65.42578125 19.73046875 65.42578125 20.1875 68.3125 C20.34605469 69.25738281 20.50460937 70.20226562 20.66796875 71.17578125 C20.97851793 73.81727602 21.06289875 76.34373744 21 79 C15.23160499 79.54366662 11.22665806 77.68447291 6.125 75.3125 C5.36058594 74.97283203 4.59617187 74.63316406 3.80859375 74.28320312 C-1.40402894 71.91584053 -6.22209614 69.14962949 -11 66 C-9.73617008 74.16405074 -4.88424978 81.14290447 1.48828125 86.27734375 C23.22473276 101.18523662 49.20761601 104.20194991 74.95947266 104.13037109 C77.23216524 104.12504182 79.50465738 104.13033066 81.77734375 104.13671875 C91.2271556 104.14055951 100.57943269 103.75994654 110 103 C110.33 104.98 110.66 106.96 111 109 C112.65 109.33 114.3 109.66 116 110 C115.34 112.97 114.68 115.94 114 119 C85.7976841 125.03916536 54.56571614 123.42965446 26.8515625 115.76953125 C24.1704412 114.91315247 24.1704412 114.91315247 22 115 C22 115.66 22 116.32 22 117 C22.7321875 117.27328125 23.464375 117.5465625 24.21875 117.828125 C26.85860943 118.94042532 29.08868186 120.21402337 31.5 121.75 C48.91756494 132.32955796 67.26905514 137.39592971 87.5625 137.375 C88.78453125 137.37701416 90.0065625 137.37902832 91.265625 137.38110352 C100.11863195 137.28256834 108.15399749 136.16654464 116.65625 133.77734375 C119.72081019 133.06490511 121.1405472 132.84017093 124 134 C123.38125 134.433125 122.7625 134.86625 122.125 135.3125 C119.7802755 136.99740483 119.7802755 136.99740483 118 140 C118.66 140 119.32 140 120 140 C120.99 145.445 120.99 145.445 122 151 C95.52819909 161.21718632 63.19343911 156.38188818 37.75 145.3125 C25.03128625 139.52824657 14.00153647 131.74048495 4 122 C3.09636719 121.15824219 2.19273437 120.31648438 1.26171875 119.44921875 C-20.62129025 98.53475234 -34.57153879 66.8065569 -35.375 36.5 C-35.07989094 26.83791074 -32.45086879 21.520701 -25.79296875 14.4609375 C-18.37182891 7.92203107 -9.0703424 3.75324513 0 0 Z " fill="#0AFC0A" transform="translate(673,137)"/>
<path d="M0 0 C69.06390977 0 69.06390977 0 81 10 C91.28055811 21.20148562 92.1783306 34.87570407 92.11352539 49.39697266 C92.11367142 50.27625427 92.11381744 51.15553589 92.1139679 52.0614624 C92.11327869 54.92902206 92.10553342 57.79651438 92.09765625 60.6640625 C92.09578854 62.66759201 92.0943663 64.67112197 92.09336853 66.6746521 C92.08957117 71.91885667 92.07976496 77.16303304 92.06866455 82.40722656 C92.05839031 87.77017841 92.05385808 93.13313487 92.04882812 98.49609375 C92.03813992 108.99741014 92.02056597 119.4986983 92 130 C85.73 130 79.46 130 73 130 C72.9906543 127.07318359 72.98130859 124.14636719 72.97167969 121.13085938 C72.93787341 111.44766461 72.88230396 101.76468214 72.81609726 92.08165741 C72.77663183 86.2123047 72.74443858 80.34310181 72.72900391 74.47363281 C72.71383146 68.80650825 72.6793747 63.13979561 72.63169098 57.47285461 C72.61688339 55.31361985 72.60895935 53.15432627 72.60811615 50.99504089 C72.60574295 47.96434905 72.57863375 44.93479232 72.54589844 41.90429688 C72.5509288 41.01668671 72.55595917 40.12907654 72.56114197 39.21456909 C72.46426562 33.39630814 71.36111435 28.8313544 68 24 C54.77709053 13.07672696 32.89086941 16.48035063 18 16 C18 53.62 18 91.24 18 130 C12.06 130 6.12 130 0 130 C0 87.1 0 44.2 0 0 Z " fill="#0DFE0D" transform="translate(573,288)"/>
<path d="M0 0 C0.62852934 2.33247815 1.15535246 4.69291467 1.625 7.0625 C2.01558594 8.99802734 2.01558594 8.99802734 2.4140625 10.97265625 C2.60742188 11.97167969 2.80078125 12.97070312 3 14 C3.82242188 13.95359375 4.64484375 13.9071875 5.4921875 13.859375 C14.28599078 13.5750488 21.40137846 14.07626148 28.2890625 19.953125 C34.51974162 26.43303129 37.05181553 32.57513647 37.375 41.5 C37.24227421 46.72792145 35.99453968 51.1917347 34 56 C34.845625 56.20625 35.69125 56.4125 36.5625 56.625 C44.22321771 59.68928709 48.12196207 64.93825083 51.84375 72.1640625 C53.48796455 76.19683197 53.85777185 79.66204151 54 84 C51.6263603 84.50734284 49.25142575 85.00602386 46.875 85.5 C46.20984375 85.64308594 45.5446875 85.78617187 44.859375 85.93359375 C40.83943578 86.7612283 37.10095101 87.15330658 33 87 C32.91363281 86.32453125 32.82726562 85.6490625 32.73828125 84.953125 C32.07714419 80.75581451 31.5972674 77.76015851 28.9375 74.375 C21.6253822 70.95230656 13.83113776 73.50387709 6.33203125 75.24609375 C3.23107951 75.94771589 0.14037225 76.50916792 -3 77 C-2.7834375 77.59167969 -2.566875 78.18335938 -2.34375 78.79296875 C-2.0653125 79.58316406 -1.786875 80.37335938 -1.5 81.1875 C-1.2215625 81.96480469 -0.943125 82.74210937 -0.65625 83.54296875 C0.0353168 86.13222779 0.11370917 88.33257238 0 91 C-2.91672884 91.02700675 -5.83320677 91.04684237 -8.75 91.0625 C-9.575 91.07087891 -10.4 91.07925781 -11.25 91.08789062 C-12.44882812 91.09272461 -12.44882812 91.09272461 -13.671875 91.09765625 C-14.4050293 91.10289307 -15.13818359 91.10812988 -15.89355469 91.11352539 C-18.07949429 90.99571571 -19.92773984 90.70836891 -22 90 C-25.50873146 83.94500161 -26.73476453 76.31338402 -28.3527832 69.57177734 C-29.782451 63.67951851 -31.44887298 57.87055222 -33.1875 52.0625 C-33.44966309 51.17957275 -33.71182617 50.29664551 -33.98193359 49.38696289 C-34.3524585 48.1609436 -34.3524585 48.1609436 -34.73046875 46.91015625 C-34.95114014 46.17933838 -35.17181152 45.44852051 -35.39916992 44.69555664 C-35.86672776 42.98983192 -35.86672776 42.98983192 -37 42 C-38.85287502 41.92773498 -40.70833878 41.9161878 -42.5625 41.9375 C-43.57441406 41.94652344 -44.58632813 41.95554688 -45.62890625 41.96484375 C-46.41136719 41.97644531 -47.19382812 41.98804688 -48 42 C-49.8777744 37.26474281 -51.25320402 33.06081162 -52 28 C-49.2518872 27.15996552 -46.50180419 26.32777849 -43.75 25.5 C-42.97269531 25.26152344 -42.19539062 25.02304688 -41.39453125 24.77734375 C-40.64042969 24.55175781 -39.88632812 24.32617188 -39.109375 24.09375 C-38.07248535 23.77954102 -38.07248535 23.77954102 -37.01464844 23.45898438 C-35 23 -35 23 -31 23 C-31.28875 22.08476562 -31.5775 21.16953125 -31.875 20.2265625 C-32.24625 19.03804687 -32.6175 17.84953125 -33 16.625 C-33.37125 15.44164062 -33.7425 14.25828125 -34.125 13.0390625 C-35 10 -35 10 -35 8 C-31.04 7.01 -27.08 6.02 -23 5 C-21.1459165 10.17598311 -20 13.43756187 -20 19 C-14.555 18.01 -14.555 18.01 -9 17 C-9.28875 16.08476562 -9.5775 15.16953125 -9.875 14.2265625 C-10.24625 13.03804687 -10.6175 11.84953125 -11 10.625 C-11.37125 9.44164063 -11.7425 8.25828125 -12.125 7.0390625 C-13 4 -13 4 -13 2 C-3.96875 -1.984375 -3.96875 -1.984375 0 0 Z " fill="#FAFDFA" transform="translate(756,117)"/>
<path d="M0 0 C1.37200562 0.01027222 1.37200562 0.01027222 2.77172852 0.02075195 C11.27998157 0.22201921 19.14158968 1.5682066 26.125 6.75 C32.5204736 13.62513412 33.95484548 20.09586515 33.83203125 29.2734375 C33.32339494 37.0469358 31.13721031 43.01691645 25.7109375 48.68359375 C16.63877206 56.31168791 6.04702904 57.7673088 -5.375 57.5625 C-6.34050781 57.55347656 -7.30601562 57.54445313 -8.30078125 57.53515625 C-10.65896326 57.51180791 -13.0170158 57.47594539 -15.375 57.4375 C-15.375 52.8175 -15.375 48.1975 -15.375 43.4375 C-13.92867187 43.32792969 -12.48234375 43.21835937 -10.9921875 43.10546875 C-9.07807101 42.94595904 -7.16401131 42.78576682 -5.25 42.625 C-4.29867187 42.55474609 -3.34734375 42.48449219 -2.3671875 42.41210938 C2.89899726 41.95497528 7.08960487 41.3956824 11.625 38.4375 C15.48335721 33.0357999 15.09038995 27.58847811 14.3828125 21.27734375 C13.77441911 19.2649725 13.77441911 19.2649725 11.7265625 18.35546875 C3.68542188 15.98371276 -3.87443803 15.62475273 -11.6875 19.0625 C-18.20302495 22.79327093 -22.13846908 28.52096128 -24.68359375 35.49609375 C-26.71118579 44.12195141 -26.74273649 54.51029143 -22.375 62.4375 C-17.70135242 69.50496707 -12.10911691 72.96408534 -3.98828125 75.05078125 C4.7468561 76.34342489 13.40789585 74.25829695 21.625 71.4375 C24.925 74.7375 28.225 78.0375 31.625 81.4375 C30.34359503 85.28171492 29.07095447 85.61305956 25.5625 87.5 C24.64339844 88.00660156 23.72429687 88.51320313 22.77734375 89.03515625 C10.38793006 94.54667981 -5.91510365 94.37717367 -18.546875 89.76171875 C-30.3708482 84.22535561 -37.66455192 76.30859895 -42.4296875 64.26953125 C-46.9565823 50.70755302 -45.00917876 34.9851033 -39.125 22.1875 C-33.88355163 12.4533816 -26.29874159 5.29025326 -15.73046875 1.796875 C-10.44105843 0.28749719 -5.47955298 -0.06341488 0 0 Z " fill="#0CFE0C" transform="translate(728.375,327.5625)"/>
<path d="M0 0 C1.37200562 0.01027222 1.37200562 0.01027222 2.77172852 0.02075195 C11.27998157 0.22201921 19.14158968 1.5682066 26.125 6.75 C32.5204736 13.62513412 33.95484548 20.09586515 33.83203125 29.2734375 C33.32339494 37.0469358 31.13721031 43.01691645 25.7109375 48.68359375 C16.63877206 56.31168791 6.04702904 57.7673088 -5.375 57.5625 C-6.34050781 57.55347656 -7.30601562 57.54445313 -8.30078125 57.53515625 C-10.65896326 57.51180791 -13.0170158 57.47594539 -15.375 57.4375 C-15.375 52.8175 -15.375 48.1975 -15.375 43.4375 C-13.92867188 43.32792969 -12.48234375 43.21835937 -10.9921875 43.10546875 C-9.07807101 42.94595904 -7.16401131 42.78576682 -5.25 42.625 C-4.29867187 42.55474609 -3.34734375 42.48449219 -2.3671875 42.41210938 C2.89899726 41.95497528 7.08960487 41.3956824 11.625 38.4375 C15.48335721 33.0357999 15.09038995 27.58847811 14.3828125 21.27734375 C13.77441911 19.2649725 13.77441911 19.2649725 11.7265625 18.35546875 C3.68542188 15.98371276 -3.87443803 15.62475273 -11.6875 19.0625 C-18.20302495 22.79327093 -22.13846908 28.52096128 -24.68359375 35.49609375 C-26.71118579 44.12195141 -26.74273649 54.51029143 -22.375 62.4375 C-17.70135242 69.50496707 -12.10911691 72.96408534 -3.98828125 75.05078125 C4.7468561 76.34342489 13.40789585 74.25829695 21.625 71.4375 C24.925 74.7375 28.225 78.0375 31.625 81.4375 C30.34359503 85.28171492 29.07095447 85.61305956 25.5625 87.5 C24.64339844 88.00660156 23.72429687 88.51320313 22.77734375 89.03515625 C10.38793006 94.54667981 -5.91510365 94.37717367 -18.546875 89.76171875 C-30.3708482 84.22535561 -37.66455192 76.30859895 -42.4296875 64.26953125 C-46.9565823 50.70755302 -45.00917876 34.9851033 -39.125 22.1875 C-33.88355163 12.4533816 -26.29874159 5.29025326 -15.73046875 1.796875 C-10.44105843 0.28749719 -5.47955298 -0.06341488 0 0 Z " fill="#FFFFFF" transform="translate(370.375,327.5625)"/>
<path d="M0 0 C33.12827081 10.95213642 33.12827081 10.95213642 40.5625 25.3125 C47.53888403 43.20844164 41.14364343 64.07447868 34 81 C27.02356206 96.35913918 17.64388085 109.82199618 6 122 C5.39027344 122.67289062 4.78054688 123.34578125 4.15234375 124.0390625 C-8.12277461 137.12209736 -26.62574158 148.38193503 -44 153 C-44.99 153 -45.98 153 -47 153 C-48.42258812 149.17679443 -49.24042276 146.08718695 -49 142 C-49.66 142 -50.32 142 -51 142 C-50.67 140.35 -50.34 138.7 -50 137 C-48.35 136.67 -46.7 136.34 -45 136 C-45 135.34 -45 134.68 -45 134 C-43.40285156 133.30777344 -43.40285156 133.30777344 -41.7734375 132.6015625 C-21.80008534 123.71998789 -21.80008534 123.71998789 -6.625 108.6875 C-6.41875 108.130625 -6.2125 107.57375 -6 107 C-6.99 106.505 -6.99 106.505 -8 106 C-7.40832031 105.10539062 -6.81664062 104.21078125 -6.20703125 103.2890625 C-5.40761981 102.0685159 -4.60953515 100.84709968 -3.8125 99.625 C-3.39540771 98.98667236 -2.97831543 98.34834473 -2.54858398 97.69067383 C-0.24513053 94.11216656 1.73241502 90.59807533 3.4375 86.6875 C5.80887415 81.6213825 9.446942 78.72571243 13.68359375 75.18359375 C16.94343667 72.11065582 18.34901226 69.12746936 20 65 C16.7 65.99 13.4 66.98 10 68 C10.23009766 66.62134766 10.23009766 66.62134766 10.46484375 65.21484375 C11.206817 60.02103099 11.35464583 54.79974364 11.5625 49.5625 C11.62727539 48.03592773 11.62727539 48.03592773 11.69335938 46.47851562 C11.79868582 43.98578972 11.90081672 41.49297662 12 39 C12.33 39 12.66 39 13 39 C13 41.97 13 44.94 13 48 C14.62957312 46.90259375 16.25351228 45.79681808 17.875 44.6875 C19.23238281 43.76517578 19.23238281 43.76517578 20.6171875 42.82421875 C23.19971385 41.05086051 23.19971385 41.05086051 25 38 C25.39349043 34.56921411 25.39349043 34.56921411 24 31 C20.41278034 27.63041501 16.81860265 25.16759227 11.86328125 24.7109375 C10.91839844 24.47632813 9.97351563 24.24171875 9 24 C7.4609375 21.375 7.4609375 21.375 6.375 18 C5.97667969 16.82824219 5.57835937 15.65648437 5.16796875 14.44921875 C4.78253906 13.31097656 4.39710938 12.17273438 4 11 C2.94548187 8.54403757 1.83472276 6.12614849 0.69921875 3.70703125 C0 2 0 2 0 0 Z " fill="#606B79" transform="translate(842,135)"/>
<path d="M0 0 C11.0446875 -0.0928125 11.0446875 -0.0928125 22.3125 -0.1875 C24.61387939 -0.21481201 26.91525879 -0.24212402 29.28637695 -0.27026367 C31.14533974 -0.27903945 33.00430838 -0.28668079 34.86328125 -0.29296875 C36.26870178 -0.3159906 36.26870178 -0.3159906 37.70251465 -0.33947754 C47.82004901 -0.34341075 58.37237966 1.62556503 65.91015625 8.82421875 C74.88829677 18.50291232 74.14747122 29.49783376 74.09765625 42.02734375 C74.0957884 43.38497363 74.09436623 44.74260419 74.09336853 46.10023499 C74.08957222 49.65282084 74.07976696 53.20536504 74.06866455 56.75793457 C74.05838801 60.39135169 74.0538576 64.02477562 74.04882812 67.65820312 C74.03814177 74.77215397 74.02056872 81.88606986 74 89 C68.39 89 62.78 89 57 89 C56.98541748 87.32043213 56.97083496 85.64086426 56.95581055 83.91040039 C56.90394172 78.33032033 56.83859877 72.75050412 56.76428509 67.17067814 C56.71975971 63.79113766 56.68046594 60.41171278 56.65356445 57.03198242 C56.61986885 53.13691389 56.56754295 49.24246297 56.51171875 45.34765625 C56.50532883 44.1473024 56.4989389 42.94694855 56.49235535 41.71022034 C56.35981393 34.07342758 56.12422618 26.4812806 50.8125 20.5625 C40.65573594 14.9198533 28.00920615 16.47866114 17 16 C17 40.09 17 64.18 17 89 C11.39 89 5.78 89 0 89 C0 59.63 0 30.26 0 0 Z " fill="#FFFFFF" transform="translate(147,329)"/>
<path d="M0 0 C1.38349388 0.00424484 1.38349388 0.00424484 2.79493713 0.00857544 C5.71889638 0.01970276 8.64254076 0.04479338 11.56640625 0.0703125 C13.55793826 0.08035193 15.54947511 0.0894761 17.54101562 0.09765625 C22.40376575 0.11961767 27.26628275 0.15409577 32.12890625 0.1953125 C32.12890625 5.4753125 32.12890625 10.7553125 32.12890625 16.1953125 C29.62296875 16.23269531 27.11703125 16.27007812 24.53515625 16.30859375 C22.08585291 16.35491489 19.63669601 16.40610979 17.1875 16.45776367 C15.49618564 16.49084759 13.80476526 16.51893009 12.11328125 16.54174805 C9.67011686 16.57560086 7.2279097 16.62792758 4.78515625 16.68359375 C3.66590759 16.69317863 3.66590759 16.69317863 2.52404785 16.70295715 C-2.83797643 16.85034009 -6.98936308 17.92123738 -11.87109375 20.1953125 C-13.37109375 23.02864583 -13.37109375 23.02864583 -12.87109375 26.1953125 C-9.9529438 30.84493405 -7.12187916 32.22591881 -1.98046875 33.9140625 C-1.31702454 34.13928589 -0.65358032 34.36450928 0.02996826 34.59655762 C2.14146155 35.31164786 4.25914748 36.00514725 6.37890625 36.6953125 C29.18153822 44.19472817 29.18153822 44.19472817 34.23046875 53.29296875 C35.35818556 55.68078651 35.93529335 57.54926948 36.12890625 60.1953125 C36.19078125 60.83984375 36.25265625 61.484375 36.31640625 62.1484375 C36.70514554 69.09715232 35.12848439 75.66115608 30.55078125 81.0546875 C22.46041347 88.41619331 13.52470299 89.35087826 3.015625 89.29296875 C2.04607376 89.2915538 1.07652252 89.29013885 0.07759094 89.28868103 C-3.00950242 89.28309763 -6.09652242 89.27054814 -9.18359375 89.2578125 C-11.28059791 89.25279536 -13.37760321 89.24823282 -15.47460938 89.24414062 C-20.60679896 89.23313362 -25.73893393 89.21588038 -30.87109375 89.1953125 C-30.87109375 83.9153125 -30.87109375 78.6353125 -30.87109375 73.1953125 C-28.37675781 73.14632812 -25.88242187 73.09734375 -23.3125 73.046875 C-20.86981728 72.9927099 -18.42722457 72.93546379 -15.98461914 72.87792969 C-14.30011838 72.83988373 -12.6155431 72.80499051 -10.9309082 72.7734375 C-8.49533631 72.72725184 -6.06026683 72.66935256 -3.625 72.609375 C-2.51349327 72.59204819 -2.51349327 72.59204819 -1.37953186 72.57437134 C7.7794093 72.43712852 7.7794093 72.43712852 15.8603363 68.80630493 C17.38479027 67.14444753 17.38479027 67.14444753 17.56640625 64.2578125 C17.01994046 60.43255198 16.0678694 59.63309485 13.12890625 57.1953125 C10.23400748 55.8472123 10.23400748 55.8472123 6.94140625 54.8203125 C5.08708984 54.18222656 5.08708984 54.18222656 3.1953125 53.53125 C0.40208973 52.60040356 -2.40389482 51.72230502 -5.21875 50.859375 C-15.81299672 47.51573825 -23.69352521 43.58453497 -29.99609375 33.9453125 C-31.7465844 26.44320971 -32.48383433 17.83886607 -28.3984375 10.9765625 C-20.66019181 1.95190768 -11.28240099 -0.13195941 0 0 Z " fill="#09FE09" transform="translate(809.87109375,328.8046875)"/>
<path d="M0 0 C1.38349388 0.00424484 1.38349388 0.00424484 2.79493713 0.00857544 C5.71889638 0.01970276 8.64254076 0.04479338 11.56640625 0.0703125 C13.55793826 0.08035193 15.54947511 0.0894761 17.54101562 0.09765625 C22.40376575 0.11961767 27.26628275 0.15409577 32.12890625 0.1953125 C32.12890625 5.4753125 32.12890625 10.7553125 32.12890625 16.1953125 C29.62296875 16.23269531 27.11703125 16.27007812 24.53515625 16.30859375 C22.08585291 16.35491489 19.63669601 16.40610979 17.1875 16.45776367 C15.49618564 16.49084759 13.80476526 16.51893009 12.11328125 16.54174805 C9.67011686 16.57560086 7.2279097 16.62792758 4.78515625 16.68359375 C3.66590759 16.69317863 3.66590759 16.69317863 2.52404785 16.70295715 C-2.83797643 16.85034009 -6.98936308 17.92123738 -11.87109375 20.1953125 C-13.37109375 23.02864583 -13.37109375 23.02864583 -12.87109375 26.1953125 C-9.9529438 30.84493405 -7.12187916 32.22591881 -1.98046875 33.9140625 C-1.31702454 34.13928589 -0.65358032 34.36450928 0.02996826 34.59655762 C2.14146155 35.31164786 4.25914748 36.00514725 6.37890625 36.6953125 C29.18153822 44.19472817 29.18153822 44.19472817 34.23046875 53.29296875 C35.35818556 55.68078651 35.93529335 57.54926948 36.12890625 60.1953125 C36.19078125 60.83984375 36.25265625 61.484375 36.31640625 62.1484375 C36.70514554 69.09715232 35.12848439 75.66115608 30.55078125 81.0546875 C22.46041347 88.41619331 13.52470299 89.35087826 3.015625 89.29296875 C2.04607376 89.2915538 1.07652252 89.29013885 0.07759094 89.28868103 C-3.00950242 89.28309763 -6.09652242 89.27054814 -9.18359375 89.2578125 C-11.28059791 89.25279536 -13.37760321 89.24823282 -15.47460938 89.24414062 C-20.60679896 89.23313362 -25.73893393 89.21588038 -30.87109375 89.1953125 C-30.87109375 83.9153125 -30.87109375 78.6353125 -30.87109375 73.1953125 C-28.37675781 73.14632812 -25.88242187 73.09734375 -23.3125 73.046875 C-20.86981728 72.9927099 -18.42722457 72.93546379 -15.98461914 72.87792969 C-14.30011838 72.83988373 -12.6155431 72.80499051 -10.9309082 72.7734375 C-8.49533631 72.72725184 -6.06026683 72.66935256 -3.625 72.609375 C-2.51349327 72.59204819 -2.51349327 72.59204819 -1.37953186 72.57437134 C7.7794093 72.43712852 7.7794093 72.43712852 15.8603363 68.80630493 C17.38479027 67.14444753 17.38479027 67.14444753 17.56640625 64.2578125 C17.01994046 60.43255198 16.0678694 59.63309485 13.12890625 57.1953125 C10.23400748 55.8472123 10.23400748 55.8472123 6.94140625 54.8203125 C5.08708984 54.18222656 5.08708984 54.18222656 3.1953125 53.53125 C0.40208973 52.60040356 -2.40389482 51.72230502 -5.21875 50.859375 C-15.81299672 47.51573825 -23.69352521 43.58453497 -29.99609375 33.9453125 C-31.7465844 26.44320971 -32.48383433 17.83886607 -28.3984375 10.9765625 C-20.66019181 1.95190768 -11.28240099 -0.13195941 0 0 Z " fill="#FFFFFF" transform="translate(450.87109375,328.8046875)"/>
<path d="M0 0 C5.94 0 11.88 0 18 0 C18.42410156 1.99417969 18.84820312 3.98835938 19.28515625 6.04296875 C25.42198843 34.88869881 25.42198843 34.88869881 36.93359375 61.91796875 C38 64 38 64 38 66 C38.66 66 39.32 66 40 66 C40.27328125 65.13632812 40.5465625 64.27265625 40.828125 63.3828125 C41.9643832 60.10281383 43.30782692 57.03072281 44.75 53.875 C51.71050812 37.9683371 55.27250051 21.09712251 58.52270508 4.11279297 C59 2 59 2 60 0 C65.94 0 71.88 0 78 0 C71.32675965 33.95780108 64.93725649 65.55001487 40 91 C25.7621796 84.54800296 17.81397855 65.83526261 12.40625 52.05859375 C6.3441236 35.55856622 2.48049536 17.3634675 0 0 Z " fill="#FFFFFF" transform="translate(236,329)"/>
<path d="M0 0 C0 5.94 0 11.88 0 18 C8.25 18 16.5 18 25 18 C25 23.28 25 28.56 25 34 C16.75 34 8.5 34 0 34 C0.07429966 39.67495687 0.15739854 45.34842363 0.26245117 51.02270508 C0.295539 52.94970769 0.32362028 54.87680346 0.34643555 56.80395508 C0.38028037 59.58715209 0.4326086 62.36950771 0.48828125 65.15234375 C0.49467117 66.00271713 0.5010611 66.85309052 0.50764465 67.72923279 C0.64628302 73.47371389 1.47314172 78.7804609 4 84 C8.19724403 87.82010037 12.45068443 88.85494594 17.875 89.75 C20.22625 90.1625 22.5775 90.575 25 91 C25 96.28 25 101.56 25 107 C13.00121766 107.38705749 1.91813752 106.40476934 -8 99 C-14.75770653 92.50846134 -17.06172886 83.70170447 -17.34057617 74.52856445 C-17.3401111 72.6400701 -17.32376365 70.75152456 -17.29296875 68.86328125 C-17.28872391 67.85782761 -17.28447906 66.85237396 -17.28010559 65.81645203 C-17.26349646 62.64817954 -17.22587897 59.48057575 -17.1875 56.3125 C-17.17243016 54.14649365 -17.15874581 51.98047719 -17.14648438 49.81445312 C-17.11365142 44.54271649 -17.06199487 39.27147106 -17 34 C-22.28 34 -27.56 34 -33 34 C-28.73218124 28.95443172 -24.34026563 24.06302543 -19.8125 19.25 C-19.16265137 18.55841797 -18.51280273 17.86683594 -17.84326172 17.15429688 C-1.66273749 0 -1.66273749 0 0 0 Z " fill="#07FE07" transform="translate(888,311)"/>
<path d="M0 0 C0 5.94 0 11.88 0 18 C8.25 18 16.5 18 25 18 C25 23.28 25 28.56 25 34 C16.75 34 8.5 34 0 34 C0.07429966 39.67495687 0.15739854 45.34842363 0.26245117 51.02270508 C0.295539 52.94970769 0.32362028 54.87680346 0.34643555 56.80395508 C0.38028037 59.58715209 0.4326086 62.36950771 0.48828125 65.15234375 C0.49467117 66.00271713 0.5010611 66.85309052 0.50764465 67.72923279 C0.64628302 73.47371389 1.47314172 78.7804609 4 84 C8.19724403 87.82010037 12.45068443 88.85494594 17.875 89.75 C20.22625 90.1625 22.5775 90.575 25 91 C25 96.28 25 101.56 25 107 C13.00121766 107.38705749 1.91813752 106.40476934 -8 99 C-14.75770653 92.50846134 -17.06172886 83.70170447 -17.34057617 74.52856445 C-17.3401111 72.6400701 -17.32376365 70.75152456 -17.29296875 68.86328125 C-17.28872391 67.85782761 -17.28447906 66.85237396 -17.28010559 65.81645203 C-17.26349646 62.64817954 -17.22587897 59.48057575 -17.1875 56.3125 C-17.17243016 54.14649365 -17.15874581 51.98047719 -17.14648438 49.81445312 C-17.11365142 44.54271649 -17.06199487 39.27147106 -17 34 C-22.28 34 -27.56 34 -33 34 C-28.73218124 28.95443172 -24.34026563 24.06302543 -19.8125 19.25 C-19.16265137 18.55841797 -18.51280273 17.86683594 -17.84326172 17.15429688 C-1.66273749 0 -1.66273749 0 0 0 Z " fill="#FFFFFF" transform="translate(529,311)"/>
<path d="M0 0 C5.94 0 11.88 0 18 0 C18 42.9 18 85.8 18 130 C12.06 130 6.12 130 0 130 C0 87.1 0 44.2 0 0 Z " fill="#FFFFFF" transform="translate(105,288)"/>
<path d="M0 0 C0 4.19798886 -2.16999496 6.16131396 -5 9 C-19.98150375 21.79423798 -36.80813716 29.32363666 -56 33 C-57.16414429 33.26151855 -57.16414429 33.26151855 -58.35180664 33.52832031 C-74.06663465 36.32734748 -91.82834656 34.83348226 -107 30 C-108.13953125 29.63777344 -109.2790625 29.27554687 -110.453125 28.90234375 C-121.03343678 25.13278823 -131.96286769 19.69367326 -141 13 C-141.33 12.01 -141.66 11.02 -142 10 C-135.72002065 10.97765246 -129.5098271 12.08531467 -123.3125 13.5 C-84.73544191 21.78754683 -44.57412714 16.54781243 -7.95117188 2.72460938 C-5.3228043 1.74850891 -2.66633775 0.86613519 0 0 Z " fill="#0A1C30" transform="translate(836,241)"/>
<path d="M0 0 C3.32159324 3.32159324 3.92309257 7.87071106 5.1875 12.3125 C5.47302734 13.26318359 5.75855469 14.21386719 6.05273438 15.19335938 C6.31763672 16.11568359 6.58253906 17.03800781 6.85546875 17.98828125 C7.09934326 18.82915283 7.34321777 19.67002441 7.59448242 20.53637695 C8.40238588 25.44459716 6.84191352 28.69117195 4.06933594 32.70605469 C3.65458008 33.27743164 3.23982422 33.84880859 2.8125 34.4375 C2.37325195 35.04368164 1.93400391 35.64986328 1.48144531 36.27441406 C-13.06492529 55.73984718 -35.23526232 72.68335039 -59 79 C-59.99 79 -60.98 79 -62 79 C-63.42258812 75.17679443 -64.24042276 72.08718695 -64 68 C-64.66 68 -65.32 68 -66 68 C-65.67 66.35 -65.34 64.7 -65 63 C-62.525 62.505 -62.525 62.505 -60 62 C-60 61.34 -60 60.68 -60 60 C-58.93523438 59.53851563 -57.87046875 59.07703125 -56.7734375 58.6015625 C-36.80008534 49.71998789 -36.80008534 49.71998789 -21.625 34.6875 C-21.41875 34.130625 -21.2125 33.57375 -21 33 C-21.99 32.505 -21.99 32.505 -23 32 C-22.40832031 31.10539062 -21.81664062 30.21078125 -21.20703125 29.2890625 C-20.40757891 28.06854268 -19.60949692 26.84712461 -18.8125 25.625 C-18.39613281 24.98739746 -17.97976563 24.34979492 -17.55078125 23.69287109 C-15.23542607 20.09412177 -13.23462217 16.54782045 -11.5 12.625 C-8.9171807 7.11255173 -4.73381338 3.69216817 0 0 Z " fill="#445061" transform="translate(857,209)"/>
<path d="M0 0 C1.06025391 -0.020625 2.12050781 -0.04125 3.21289062 -0.0625 C24.86739921 -0.16806738 45.2424866 9.61711656 60.4765625 24.66015625 C73.75681221 38.48330925 83.26231711 58.09552244 83.07617188 77.39257812 C83.05103516 78.39740234 83.02589844 79.40222656 83 80.4375 C82.98646484 81.48486328 82.97292969 82.53222656 82.95898438 83.61132812 C82.9240968 86.15812124 82.8750887 88.70376325 82.8125 91.25 C79.8425 92.24 79.8425 92.24 76.8125 93.25 C76.80839111 92.57646484 76.80428223 91.90292969 76.80004883 91.20898438 C76.5661362 69.24739585 73.40559494 47.4921406 57.5078125 30.8125 C40.75797942 15.37486582 23.22970788 7.10357051 0.25 7 C-0.86697266 6.979375 -1.98394531 6.95875 -3.13476562 6.9375 C-14.06791335 6.88679555 -23.75561905 8.95083277 -33.4375 14.0625 C-34.12005859 14.4143335 -34.80261719 14.76616699 -35.50585938 15.12866211 C-40.45630637 17.73475269 -44.93726964 20.5973077 -49.1875 24.25 C-49.84878906 24.76949219 -50.51007812 25.28898437 -51.19140625 25.82421875 C-65.09695118 37.14391282 -74.24569991 56.53646805 -76.1875 74.25 C-76.57401462 81.25374282 -76.4340513 88.24383394 -76.1875 95.25 C-81.0625 94.375 -81.0625 94.375 -82.1875 93.25 C-84.38926021 70.06462885 -79.48299515 49.22617981 -65.125 30.75 C-63.83116787 29.23386852 -62.52009718 27.73217442 -61.1875 26.25 C-60.39472656 25.33541016 -60.39472656 25.33541016 -59.5859375 24.40234375 C-44.21507611 7.78212663 -22.08726205 0.1054914 0 0 Z " fill="#F3FDF3" transform="translate(758.1875,99.75)"/>
<path d="M0 0 C0.58523438 0.17015625 1.17046875 0.3403125 1.7734375 0.515625 C4.83949941 1.38111995 7.91972117 2.1865341 11 3 C12.23878906 3.35964844 13.47757813 3.71929687 14.75390625 4.08984375 C33.18473249 9.10316996 53.29452128 8.9460981 71.65625 3.77734375 C74.72081019 3.06490511 76.1405472 2.84017093 79 4 C78.38125 4.433125 77.7625 4.86625 77.125 5.3125 C74.7802755 6.99740483 74.7802755 6.99740483 73 10 C73.66 10 74.32 10 75 10 C75.99 15.445 75.99 15.445 77 21 C56.50441141 28.91057805 33.20149754 27.04361002 12.25 22.0625 C11.56993896 21.90491211 10.88987793 21.74732422 10.18920898 21.58496094 C3.98318177 20.01277788 3.98318177 20.01277788 2 17 C0.39080708 11.51841769 -0.30834522 5.7043866 0 0 Z " fill="#059217" transform="translate(718,267)"/>
<path d="M0 0 C4.20971519 -0.26528885 6.92358992 -0.15159254 10.29296875 2.5390625 C13.73482415 6.23905705 13.92889474 8.89656434 14.109375 13.76953125 C14.15126953 14.84267578 14.19316406 15.91582031 14.23632812 17.02148438 C14.27564453 18.14103516 14.31496094 19.26058594 14.35546875 20.4140625 C14.39865234 21.54521484 14.44183594 22.67636719 14.48632812 23.84179688 C14.59245974 26.63659604 14.6945126 29.43148412 14.79296875 32.2265625 C9.06310924 33.78153008 3.51272403 34.78675769 -2.39453125 35.3515625 C-3.27004639 35.43647949 -4.14556152 35.52139648 -5.04760742 35.60888672 C-17.73182539 36.69308249 -30.49012908 36.39987179 -43.20703125 36.2265625 C-43.20703125 35.8965625 -43.20703125 35.5665625 -43.20703125 35.2265625 C-38.91703125 35.2265625 -34.62703125 35.2265625 -30.20703125 35.2265625 C-30.53703125 33.5146875 -30.86703125 31.8028125 -31.20703125 30.0390625 C-31.93812658 26.24650549 -32.20703125 23.14884955 -32.20703125 19.2265625 C-27.91703125 19.2265625 -23.62703125 19.2265625 -19.20703125 19.2265625 C-19.70203125 17.4734375 -20.19703125 15.7203125 -20.70703125 13.9140625 C-21.57460733 10.84139721 -22.20703125 8.426784 -22.20703125 5.2265625 C-14.77497944 2.82371868 -7.77717893 0.79836527 0 0 Z " fill="#07711E" transform="translate(775.20703125,188.7734375)"/>
<path d="M0 0 C3.6196875 0.495 3.6196875 0.495 7.3125 1 C17.11295578 2.14719845 26.8977578 2.19689241 36.75 2.1875 C37.8591124 2.18858765 37.8591124 2.18858765 38.9906311 2.18969727 C49.0347209 2.18858563 58.98610802 1.79427456 69 1 C69.495 3.97 69.495 3.97 70 7 C71.65 7.33 73.3 7.66 75 8 C74.34 10.97 73.68 13.94 73 17 C48.68623375 22.20648217 23.39643618 20.68692122 -1 17 C-0.01 16.67 0.98 16.34 2 16 C1.34 10.72 0.68 5.44 0 0 Z " fill="#076D1E" transform="translate(714,239)"/>
<path d="M0 0 C0.05513412 1.66627552 0.09329293 3.33311412 0.125 5 C0.14820313 5.928125 0.17140625 6.85625 0.1953125 7.8125 C-0.28919855 15.71972036 -0.28919855 15.71972036 -2 19 C-4.53981806 21.03700748 -7.31896877 22.0037971 -10.375 23.0625 C-11.24334473 23.38557129 -12.11168945 23.70864258 -13.00634766 24.04150391 C-29.48638969 29.92293182 -46.6629576 33.80133142 -64 36 C-64.75712312 31.981882 -65.11233839 28.21174825 -65.0625 24.125 C-65.05347656 23.15820312 -65.04445313 22.19140625 -65.03515625 21.1953125 C-65.02355469 20.47085938 -65.01195312 19.74640625 -65 19 C-64.25766113 18.86537354 -63.51532227 18.73074707 -62.75048828 18.59204102 C-41.96496992 14.74801263 -21.93650358 9.6354425 -2.65332031 0.72119141 C-1 0 -1 0 0 0 Z " fill="#094826" transform="translate(854,185)"/>
<path d="M0 0 C0.495 0.99 0.495 0.99 1 2 C-0.74516954 6.24862362 -2.88451831 10.27310168 -5.07861328 14.30566406 C-5.83164723 15.69041647 -6.558382 17.08944256 -7.27734375 18.4921875 C-14.19408039 29.85066236 -34.88824566 32.60086141 -46.86328125 35.75390625 C-50.96908966 36.74068037 -54.77861464 37.2164813 -59 37 C-58.34 34.36 -57.68 31.72 -57 29 C-57.804375 29.020625 -58.60875 29.04125 -59.4375 29.0625 C-62 29 -62 29 -63 28 C-63.04080783 26.00041636 -63.04254356 23.99954746 -63 22 C-62.01644531 21.78085938 -61.03289063 21.56171875 -60.01953125 21.3359375 C-28.51137246 14.45347261 -28.51137246 14.45347261 0 0 Z " fill="#095724" transform="translate(846,218)"/>
<path d="M0 0 C0.67548578 2.05962852 1.34004312 4.12284322 2 6.1875 C2.37125 7.33605469 2.7425 8.48460937 3.125 9.66796875 C4.50818361 14.93518133 4.50818361 14.93518133 4 18 C-3.76508476 26.2949376 -18.40164787 31.53515411 -29 35 C-29.99 35 -30.98 35 -32 35 C-33.42258812 31.17679443 -34.24042276 28.08718695 -34 24 C-34.66 24 -35.32 24 -36 24 C-35.67 22.35 -35.34 20.7 -35 19 C-33.35 18.67 -31.7 18.34 -30 18 C-30 17.34 -30 16.68 -30 16 C-28.35064453 15.27296875 -28.35064453 15.27296875 -26.66796875 14.53125 C-18.45054351 10.83150107 -11.0903412 7.09462202 -4.00390625 1.46875 C-2 0 -2 0 0 0 Z " fill="#2F4E4C" transform="translate(827,253)"/>
<path d="M0 0 C3.91771408 3.16751351 5.80848291 5.30826567 6.375 10.3125 C5.89030823 15.07863572 4.66080892 15.98577552 1 19 C-1.75303481 20.37442172 -4.57896189 21.35647803 -7.5 22.3125 C-8.24636719 22.57611328 -8.99273438 22.83972656 -9.76171875 23.11132812 C-13.61151141 24.42298315 -16.87742136 25.35172794 -21 25 C-21.86656998 22.25336296 -22.71851786 19.5035757 -23.5625 16.75 C-23.80935547 15.97269531 -24.05621094 15.19539062 -24.31054688 14.39453125 C-24.53935547 13.64042969 -24.76816406 12.88632813 -25.00390625 12.109375 C-25.32597046 11.07248535 -25.32597046 11.07248535 -25.65454102 10.01464844 C-26.0491764 7.71321296 -25.71084423 6.20383318 -25 4 C-22.33580182 3.32184046 -19.66934242 2.65734223 -17 2 C-16.25621094 1.80921875 -15.51242187 1.6184375 -14.74609375 1.421875 C-9.69847879 0.19289049 -5.19878755 -0.39257295 0 0 Z " fill="#04DC04" transform="translate(768,150)"/>
<path d="M0 0 C4.20971519 -0.26528885 6.92358992 -0.15159254 10.29296875 2.5390625 C14.40873933 6.96351588 13.88668384 10.50994171 13.79296875 16.2265625 C3.08009487 17.49355498 -7.40404945 18.57567143 -18.20703125 18.2265625 C-18.88008143 16.62506364 -19.54525352 15.02025221 -20.20703125 13.4140625 C-20.57828125 12.52074219 -20.94953125 11.62742188 -21.33203125 10.70703125 C-22.20703125 8.2265625 -22.20703125 8.2265625 -22.20703125 5.2265625 C-14.77497944 2.82371868 -7.77717893 0.79836527 0 0 Z " fill="#03DB03" transform="translate(775.20703125,188.7734375)"/>
<path d="M0 0 C9.96753703 -0.27644941 19.15867232 0.51451658 29 2 C29.66 7.28 30.32 12.56 31 18 C19.75202006 18.18746633 9.11528787 17.67552119 -2 16 C-0.68 15.67 0.64 15.34 2 15 C1.855625 14.25234375 1.71125 13.5046875 1.5625 12.734375 C1.376875 11.74953125 1.19125 10.7646875 1 9.75 C0.814375 8.77546875 0.62875 7.8009375 0.4375 6.796875 C0 4 0 4 0 0 Z " fill="#05A713" transform="translate(714,206)"/>
<path d="M0 0 C0.93005859 0.25523437 0.93005859 0.25523437 1.87890625 0.515625 C9.9098036 2.7133087 17.95376545 4.8592587 26 7 C26.66 12.61 27.32 18.22 28 24 C29.65 24 31.3 24 33 24 C33 24.33 33 24.66 33 25 C26.78835917 25.31744573 21.27223803 24.14503195 15.25 22.6875 C14.30511719 22.47416016 13.36023438 22.26082031 12.38671875 22.04101562 C11.48050781 21.82509766 10.57429687 21.60917969 9.640625 21.38671875 C8.82110352 21.19295654 8.00158203 20.99919434 7.15722656 20.79956055 C4.74316311 19.90480525 3.59987493 18.9989882 2 17 C0.39080708 11.51841769 -0.30834522 5.7043866 0 0 Z " fill="#0BC115" transform="translate(718,267)"/>
<path d="M0 0 C8.58 0.99 17.16 1.98 26 3 C26.66 8.28 27.32 13.56 28 19 C18.03194875 19.20552683 8.83109111 18.54213194 -1 17 C-0.01 16.67 0.98 16.34 2 16 C1.34 10.72 0.68 5.44 0 0 Z " fill="#03AB11" transform="translate(714,239)"/>
<path d="M0 0 C3.69408803 3.2836338 4.8654708 7.22928272 5.53515625 12.0546875 C5.78399901 17.61578217 4.44122052 22.29471016 0.91796875 26.64453125 C-2.15951907 29.14544055 -5.90011304 29.11522549 -9.75 29 C-13.56663146 27.42356526 -15.52063251 25.41754687 -17.75 22 C-19.53253653 15.46779334 -19.07680882 8.93986594 -15.75 3 C-10.8617703 -1.55494131 -6.25938083 -2.27613848 0 0 Z M-9.75 5 C-12.05821663 8.46232494 -12.02000989 9.91798316 -12 14 C-12.00515625 15.051875 -12.0103125 16.10375 -12.015625 17.1875 C-11.95467017 20.20650379 -11.95467017 20.20650379 -9.75 23 C-6.75 23.5 -6.75 23.5 -3.75 23 C-1.44178337 19.53767506 -1.47999011 18.08201684 -1.5 14 C-1.49484375 12.948125 -1.4896875 11.89625 -1.484375 10.8125 C-1.54532983 7.79349621 -1.54532983 7.79349621 -3.75 5 C-6.75 4.5 -6.75 4.5 -9.75 5 Z " fill="#FFFFFF" transform="translate(135.75,473)"/>
<path d="M0 0 C0.495 0.99 0.495 0.99 1 2 C-0.74516954 6.24862362 -2.88451831 10.27310168 -5.07861328 14.30566406 C-5.83164723 15.69041647 -6.558382 17.08944256 -7.27734375 18.4921875 C-11.27462094 25.05640627 -18.13770051 27.00322355 -25.06933594 29.34619141 C-26.90236421 29.96693619 -28.72129505 30.62886166 -30.5390625 31.29296875 C-38.55224868 34.14925044 -38.55224868 34.14925044 -42 33 C-41.31035156 32.53851563 -40.62070312 32.07703125 -39.91015625 31.6015625 C-32.23773958 26.27612651 -26.1113746 20.3560091 -20.42578125 12.94921875 C-17.15630218 8.76607704 -14.20410292 6.8467547 -9.2578125 4.91015625 C-5.97014205 3.58484965 -3.04171088 1.81208308 0 0 Z " fill="#094227" transform="translate(846,218)"/>
<path d="M0 0 C1.66611905 -0.042721 3.33382885 -0.04063832 5 0 C6 1 6 1 6.11352539 3.86743164 C6.10828857 5.11903076 6.10305176 6.37062988 6.09765625 7.66015625 C6.0962413 8.32462265 6.09482635 8.98908905 6.09336853 9.6736908 C6.08775518 11.80333899 6.07520054 13.93288339 6.0625 16.0625 C6.05748671 17.50325369 6.05292351 18.94400903 6.04882812 20.38476562 C6.03778145 23.92321102 6.02050792 27.46159539 6 31 C3.33333333 31 0.66666667 31 -2 31 C-3.093125 31.268125 -4.18625 31.53625 -5.3125 31.8125 C-9 32 -9 32 -11.875 29.75 C-15.15955419 25.49940046 -15.35755677 22.27396235 -15 17 C-13.57388655 12.63777061 -12.63182166 11.34463 -8.5625 9.125 C-5 8 -5 8 -1 8 C-0.67 5.36 -0.34 2.72 0 0 Z M-6.65625 14.1875 C-8.37897603 16.51117697 -8.31179709 17.828667 -8.1875 20.6875 C-8.16042969 21.49574219 -8.13335938 22.30398438 -8.10546875 23.13671875 C-8.07066406 23.75160156 -8.03585937 24.36648438 -8 25 C-6.02 25.99 -6.02 25.99 -4 27 C-1.81264648 25.56990998 -1.81264648 25.56990998 0 23 C0.35442445 19.97175582 0.23347235 17.03514061 0 14 C-3.48828839 12.82118676 -3.48828839 12.82118676 -6.65625 14.1875 Z " fill="#FFFFFF" transform="translate(733,470)"/>
<path d="M0 0 C1.66611905 -0.042721 3.33382885 -0.04063832 5 0 C6 1 6 1 6.11352539 3.86743164 C6.10828857 5.11903076 6.10305176 6.37062988 6.09765625 7.66015625 C6.0962413 8.32462265 6.09482635 8.98908905 6.09336853 9.6736908 C6.08775518 11.80333899 6.07520054 13.93288339 6.0625 16.0625 C6.05748671 17.50325369 6.05292351 18.94400903 6.04882812 20.38476562 C6.03778145 23.92321102 6.02050792 27.46159539 6 31 C3.33333333 31 0.66666667 31 -2 31 C-3.093125 31.268125 -4.18625 31.53625 -5.3125 31.8125 C-9 32 -9 32 -11.875 29.75 C-15.15955419 25.49940046 -15.35755677 22.27396235 -15 17 C-13.57388655 12.63777061 -12.63182166 11.34463 -8.5625 9.125 C-5 8 -5 8 -1 8 C-0.67 5.36 -0.34 2.72 0 0 Z M-6.65625 14.1875 C-8.37897603 16.51117697 -8.31179709 17.828667 -8.1875 20.6875 C-8.16042969 21.49574219 -8.13335937 22.30398438 -8.10546875 23.13671875 C-8.07066406 23.75160156 -8.03585937 24.36648438 -8 25 C-6.02 25.99 -6.02 25.99 -4 27 C-1.81264648 25.56990998 -1.81264648 25.56990998 0 23 C0.35442445 19.97175582 0.23347235 17.03514061 0 14 C-3.48828839 12.82118676 -3.48828839 12.82118676 -6.65625 14.1875 Z " fill="#FFFFFF" transform="translate(421,470)"/>
<path d="M0 0 C1.0725 0.165 2.145 0.33 3.25 0.5 C6.85104678 1.20185877 6.85104678 1.20185877 9.75 0.375 C10.4925 0.25125 11.235 0.1275 12 0 C14.17279059 1.58684014 14.9208069 2.49390215 15.34057617 5.17651367 C15.32486572 5.99869385 15.30915527 6.82087402 15.29296875 7.66796875 C15.28330078 8.56064453 15.27363281 9.45332031 15.26367188 10.37304688 C15.23853516 11.30181641 15.21339844 12.23058594 15.1875 13.1875 C15.16719727 14.59805664 15.16719727 14.59805664 15.14648438 16.03710938 C15.11113096 18.35865038 15.06178674 20.67903653 15 23 C13.35 23 11.7 23 10 23 C9.67 17.39 9.34 11.78 9 6 C6.94077598 8.05922402 7.58572421 12.21708124 7.4375 15.0625 C7.39431641 15.82111328 7.35113281 16.57972656 7.30664062 17.36132812 C7.20026367 19.24065438 7.09960066 21.12030244 7 23 C5.02 23 3.04 23 1 23 C0.67 17.39 0.34 11.78 0 6 C-1.52106634 9.04213267 -1.37429338 12.28047572 -1.5625 15.625 C-1.60568359 16.33140625 -1.64886719 17.0378125 -1.69335938 17.765625 C-1.79944751 19.51018537 -1.90022889 21.25506697 -2 23 C-3.65 23 -5.3 23 -7 23 C-7 15.74 -7 8.48 -7 1 C-5.02 1 -3.04 1 -1 1 C-0.67 0.67 -0.34 0.34 0 0 Z " fill="#FFFFFF" transform="translate(773,478)"/>
<path d="M0 0 C-0.61875 0.433125 -1.2375 0.86625 -1.875 1.3125 C-4.2197245 2.99740483 -4.2197245 2.99740483 -6 6 C-5.34 6 -4.68 6 -4 6 C-3.34 9.63 -2.68 13.26 -2 17 C-9.40839903 20.01358605 -16.01770865 20.61767731 -24 20 C-25.99616554 18.00383446 -25.40983427 14.18298037 -25.5625 11.4375 C-25.60568359 10.72658203 -25.64886719 10.01566406 -25.69335938 9.28320312 C-25.79971777 7.52238088 -25.90038846 5.7612168 -26 4 C-22.42010978 3.13094278 -18.83566807 2.28237304 -15.25 1.4375 C-14.23421875 1.19064453 -13.2184375 0.94378906 -12.171875 0.68945312 C-11.1921875 0.46064453 -10.2125 0.23183594 -9.203125 -0.00390625 C-8.30239258 -0.21861572 -7.40166016 -0.4333252 -6.47363281 -0.65454102 C-3.95701536 -1.00600309 -2.38749855 -0.80151737 0 0 Z " fill="#12692A" transform="translate(797,271)"/>
<path d="M0 0 C3.12919208 3.2938864 4.27419565 6.04412746 4.5 10.5 C4.2821829 14.95398416 3.02993218 17.64250759 0 21 C-3.39711132 22.91631921 -6.13535319 23.22083696 -10 23 C-10 25.64 -10 28.28 -10 31 C-11.98 31 -13.96 31 -16 31 C-16 20.77 -16 10.54 -16 0 C-13.66666667 0 -11.33333333 0 -9 0 C-5.3678011 -1.21073297 -3.65436277 -1.11868248 0 0 Z M-8 5 C-10.27216848 6.83737827 -10.27216848 6.83737827 -10.1953125 9.6015625 C-10.17210937 10.59929687 -10.14890625 11.59703125 -10.125 12.625 C-10.10695313 13.62789063 -10.08890625 14.63078125 -10.0703125 15.6640625 C-10.04710937 16.43492187 -10.02390625 17.20578125 -10 18 C-5.79219525 17.76277412 -5.79219525 17.76277412 -2.5625 15.375 C-1.77930263 12.06816665 -2.36440607 9.30508845 -3 6 C-5.39719432 5.32041397 -5.39719432 5.32041397 -8 5 Z " fill="#FFFFFF" transform="translate(568,479)"/>
<path d="M0 0 C3.13328197 3.13328197 3.58810868 7.0997327 4.6875 11.3125 C4.92533203 12.16779297 5.16316406 13.02308594 5.40820312 13.90429688 C7.61561448 22.26138797 7.61561448 22.26138797 6 26 C3.85546875 28.38671875 3.85546875 28.38671875 1.1875 30.6875 C0.31480469 31.45449219 -0.55789063 32.22148437 -1.45703125 33.01171875 C-3.60675466 34.69253167 -5.51286041 35.91586223 -8 37 C-8.69918305 34.41932437 -9.38461049 31.83627153 -10.0625 29.25 C-10.26166016 28.52039063 -10.46082031 27.79078125 -10.66601562 27.0390625 C-12.35186912 20.53225955 -12.35186912 20.53225955 -11 17 C-9.01739574 15.31267723 -7.0167658 13.64633943 -5 12 C-3.62745412 9.85019503 -3.62745412 9.85019503 -3 8 C-3.66 7.67 -4.32 7.34 -5 7 C-3.35 4.69 -1.7 2.38 0 0 Z " fill="#3C4C59" transform="translate(839,234)"/>
<path d="M0 0 C1.65 0 3.3 0 5 0 C7.04698414 2.04698414 6.70045693 6.30411241 7 9 C7.886875 8.773125 8.77375 8.54625 9.6875 8.3125 C13.61650483 7.94183917 14.95893743 8.56714994 18 11 C18.90238747 13.70716242 19.11851302 15.23776768 19.09765625 18.01171875 C19.09443359 18.76904297 19.09121094 19.52636719 19.08789062 20.30664062 C19.07951172 21.09232422 19.07113281 21.87800781 19.0625 22.6875 C19.05798828 23.48478516 19.05347656 24.28207031 19.04882812 25.10351562 C19.0370585 27.06904257 19.01912348 29.03453085 19 31 C17.02 31 15.04 31 13 31 C12.67 25.39 12.34 19.78 12 14 C10.35 14.66 8.7 15.32 7 16 C6.67 20.95 6.34 25.9 6 31 C4.02 31 2.04 31 0 31 C0 20.77 0 10.54 0 0 Z " fill="#FFFFFF" transform="translate(336,470)"/>
<path d="M0 0 C1.03640625 0.55429687 2.0728125 1.10859375 3.140625 1.6796875 C4.51040184 2.41148609 5.88019433 3.14325538 7.25 3.875 C7.93191406 4.23980469 8.61382813 4.60460937 9.31640625 4.98046875 C9.98027344 5.33496094 10.64414062 5.68945312 11.328125 6.0546875 C11.9355957 6.37937012 12.54306641 6.70405273 13.16894531 7.03857422 C15.0243736 8.05264264 15.0243736 8.05264264 17.16625977 8.86767578 C19 10 19 10 19.71362305 11.84765625 C19.81199463 12.57855469 19.91036621 13.30945313 20.01171875 14.0625 C20.12966797 14.85914063 20.24761719 15.65578125 20.36914062 16.4765625 C20.47419922 17.30929687 20.57925781 18.14203125 20.6875 19 C20.91811797 20.64617912 21.15108132 22.29203188 21.38671875 23.9375 C21.48170654 24.66839844 21.57669434 25.39929688 21.67456055 26.15234375 C21.9248109 28.08735593 21.9248109 28.08735593 23 30 C18.32615052 28.54149378 13.68320941 26.97635394 9.125 25.1875 C8.40570312 24.91292969 7.68640625 24.63835937 6.9453125 24.35546875 C3.60049204 22.02484084 2.37406351 18.85745637 1.58105469 14.91967773 C1.26416374 12.65698694 1.02264846 10.40000172 0.8125 8.125 C0.73064453 7.34125 0.64878906 6.5575 0.56445312 5.75 C0.36588325 3.83438471 0.18148253 1.91730958 0 0 Z " fill="#0CE010" transform="translate(699,256)"/>
<path d="M0 0 C6.93 0.33 13.86 0.66 21 1 C21.185625 3.454375 21.37125 5.90875 21.5625 8.4375 C21.62381104 9.21150146 21.68512207 9.98550293 21.74829102 10.78295898 C21.87169543 12.51961658 21.9376445 14.26008045 22 16 C21 17 21 17 18.68334961 17.11352539 C17.68311768 17.10828857 16.68288574 17.10305176 15.65234375 17.09765625 C14.57275391 17.09443359 13.49316406 17.09121094 12.38085938 17.08789062 C11.24455078 17.07951172 10.10824219 17.07113281 8.9375 17.0625 C7.79732422 17.05798828 6.65714844 17.05347656 5.48242188 17.04882812 C2.65489649 17.03699747 -0.1725264 17.0205141 -3 17 C-3 16.67 -3 16.34 -3 16 C-1.35 16 0.3 16 2 16 C1.855625 15.34773438 1.71125 14.69546875 1.5625 14.0234375 C1.376875 13.14945313 1.19125 12.27546875 1 11.375 C0.7215625 10.08722656 0.7215625 10.08722656 0.4375 8.7734375 C0 6 0 6 0 0 Z " fill="#058619" transform="translate(740,242)"/>
<path d="M0 0 C0.66 0.33 1.32 0.66 2 1 C1.73896484 2.02673828 1.73896484 2.02673828 1.47265625 3.07421875 C0.92653455 6.45475722 1.12777331 9.40550643 1.4375 12.8125 C1.53933594 13.97394531 1.64117188 15.13539063 1.74609375 16.33203125 C1.87177734 17.65267578 1.87177734 17.65267578 2 19 C-11.36893204 25 -11.36893204 25 -15 25 C-16.42258812 21.17679443 -17.24042276 18.08718695 -17 14 C-17.66 14 -18.32 14 -19 14 C-18.67 12.35 -18.34 10.7 -18 9 C-16.35 8.67 -14.7 8.34 -13 8 C-13 7.34 -13 6.68 -13 6 C-10.87959258 4.96966118 -8.75352092 3.95097146 -6.625 2.9375 C-5.44164062 2.36902344 -4.25828125 1.80054688 -3.0390625 1.21484375 C-2.03617188 0.81394531 -1.03328125 0.41304688 0 0 Z " fill="#195E34" transform="translate(810,263)"/>
<path d="M0 0 C0.36571706 5.7295672 -0.42762694 10.8023244 -3 16 C-6.5397007 18.35980046 -8.99106288 18.58600808 -13.1875 19.125 C-14.45980469 19.29257813 -15.73210938 19.46015625 -17.04296875 19.6328125 C-18.01878906 19.75398438 -18.99460937 19.87515625 -20 20 C-20.75712312 15.981882 -21.11233839 12.21174825 -21.0625 8.125 C-21.05347656 7.15820312 -21.04445313 6.19140625 -21.03515625 5.1953125 C-21.02355469 4.47085938 -21.01195312 3.74640625 -21 3 C-18.43850372 2.49432271 -15.87600535 1.99529868 -13.3125 1.5 C-12.59126953 1.35691406 -11.87003906 1.21382812 -11.12695312 1.06640625 C-7.36158641 0.34428113 -3.85526187 -0.1824976 0 0 Z " fill="#265741" transform="translate(810,201)"/>
<path d="M0 0 C2.93087207 2.25451698 3.82814288 3.48442865 5 7 C5.34231315 12.30585376 5.53140599 15.73795828 2 20 C-0.88471998 22.32380221 -2.75586624 22.96448964 -6.4375 23.5 C-11.19197325 22.83270551 -12.67221155 21.40702151 -16 18 C-17.57190666 13.28428001 -17.50255135 9.45181501 -15.875 4.75 C-11.65529848 -1.43889557 -6.72885437 -1.62794864 0 0 Z M-9 5 C-10.98362069 7.91708924 -10.9876191 9.12380904 -10.625 12.75 C-10.41875 13.8225 -10.2125 14.895 -10 16 C-7.525 16.99 -7.525 16.99 -5 18 C-2.16045573 15.69287028 -1.07839723 14.64024405 -0.625 10.9375 C-0.80232037 7.81457626 -0.80232037 7.81457626 -3 5 C-6.08365871 4.7497843 -6.08365871 4.7497843 -9 5 Z " fill="#FFFFFF" transform="translate(879,479)"/>
<path d="M0 0 C2.65653537 2.19164168 3.8493812 3.64443084 4.234375 7.109375 C4.2483115 9.07442084 4.13292167 11.03940539 4 13 C-0.62 13 -5.24 13 -10 13 C-9.67 14.32 -9.34 15.64 -9 17 C-5.04 17 -1.08 17 3 17 C3 18.65 3 20.3 3 22 C-2.02950475 23.67650158 -7.02791589 23.83918473 -11.9375 21.75 C-14.66457207 19.43612067 -15.81091441 17.37271229 -16.30078125 13.81640625 C-16.32545885 9.07008034 -16.21307701 5.7670558 -13 2 C-8.87437647 -1.53624874 -5.00796934 -1.68326318 0 0 Z M-8 4 C-8.66 5.32 -9.32 6.64 -10 8 C-7.36 8 -4.72 8 -2 8 C-2.66 6.68 -3.32 5.36 -4 4 C-5.32 4 -6.64 4 -8 4 Z " fill="#FFFFFF" transform="translate(807,479)"/>
<path d="M0 0 C2.65653537 2.19164168 3.8493812 3.64443084 4.234375 7.109375 C4.2483115 9.07442084 4.13292167 11.03940539 4 13 C-0.62 13 -5.24 13 -10 13 C-9.67 14.32 -9.34 15.64 -9 17 C-5.04 17 -1.08 17 3 17 C3 18.65 3 20.3 3 22 C-2.02950475 23.67650158 -7.02791589 23.83918473 -11.9375 21.75 C-14.66457207 19.43612067 -15.81091441 17.37271229 -16.30078125 13.81640625 C-16.32545885 9.07008034 -16.21307701 5.7670558 -13 2 C-8.87437647 -1.53624874 -5.00796934 -1.68326318 0 0 Z M-8 4 C-8.66 5.32 -9.32 6.64 -10 8 C-7.36 8 -4.72 8 -2 8 C-2.66 6.68 -3.32 5.36 -4 4 C-5.32 4 -6.64 4 -8 4 Z " fill="#FFFFFF" transform="translate(687,479)"/>
<path d="M0 0 C2.93087207 2.25451698 3.82814288 3.48442865 5 7 C5.34231315 12.30585376 5.53140599 15.73795828 2 20 C-0.88471998 22.32380221 -2.75586624 22.96448964 -6.4375 23.5 C-11.19197325 22.83270551 -12.67221155 21.40702151 -16 18 C-17.57190666 13.28428001 -17.50255135 9.45181501 -15.875 4.75 C-11.65529848 -1.43889557 -6.72885437 -1.62794864 0 0 Z M-9 5 C-10.98362069 7.91708924 -10.9876191 9.12380904 -10.625 12.75 C-10.41875 13.8225 -10.2125 14.895 -10 16 C-7.525 16.99 -7.525 16.99 -5 18 C-2.16045573 15.69287028 -1.07839723 14.64024405 -0.625 10.9375 C-0.80232037 7.81457626 -0.80232037 7.81457626 -3 5 C-6.08365871 4.7497843 -6.08365871 4.7497843 -9 5 Z " fill="#FFFFFF" transform="translate(615,479)"/>
<path d="M0 0 C2.65653537 2.19164168 3.8493812 3.64443084 4.234375 7.109375 C4.2483115 9.07442084 4.13292167 11.03940539 4 13 C-0.62 13 -5.24 13 -10 13 C-9.67 14.32 -9.34 15.64 -9 17 C-5.04 17 -1.08 17 3 17 C3 18.65 3 20.3 3 22 C-2.02950475 23.67650158 -7.02791589 23.83918473 -11.9375 21.75 C-14.66457207 19.43612067 -15.81091441 17.37271229 -16.30078125 13.81640625 C-16.32545885 9.07008034 -16.21307701 5.7670558 -13 2 C-8.87437647 -1.53624874 -5.00796934 -1.68326318 0 0 Z M-8 4 C-8.66 5.32 -9.32 6.64 -10 8 C-7.36 8 -4.72 8 -2 8 C-2.66 6.68 -3.32 5.36 -4 4 C-5.32 4 -6.64 4 -8 4 Z " fill="#FFFFFF" transform="translate(447,479)"/>
<path d="M0 0 C2.93087207 2.25451698 3.82814288 3.48442865 5 7 C5.34231315 12.30585376 5.53140599 15.73795828 2 20 C-0.88471998 22.32380221 -2.75586624 22.96448964 -6.4375 23.5 C-11.19197325 22.83270551 -12.67221155 21.40702151 -16 18 C-17.57190666 13.28428001 -17.50255135 9.45181501 -15.875 4.75 C-11.65529848 -1.43889557 -6.72885437 -1.62794864 0 0 Z M-9 5 C-10.98362069 7.91708924 -10.9876191 9.12380904 -10.625 12.75 C-10.41875 13.8225 -10.2125 14.895 -10 16 C-7.525 16.99 -7.525 16.99 -5 18 C-2.16045573 15.69287028 -1.07839723 14.64024405 -0.625 10.9375 C-0.80232037 7.81457626 -0.80232037 7.81457626 -3 5 C-6.08365871 4.7497843 -6.08365871 4.7497843 -9 5 Z " fill="#FFFFFF" transform="translate(375,479)"/>
<path d="M0 0 C2.65653537 2.19164168 3.8493812 3.64443084 4.234375 7.109375 C4.2483115 9.07442084 4.13292167 11.03940539 4 13 C-0.62 13 -5.24 13 -10 13 C-9.67 14.32 -9.34 15.64 -9 17 C-5.04 17 -1.08 17 3 17 C3 18.65 3 20.3 3 22 C-2.02950475 23.67650158 -7.02791589 23.83918473 -11.9375 21.75 C-14.66457207 19.43612067 -15.81091441 17.37271229 -16.30078125 13.81640625 C-16.32545885 9.07008034 -16.21307701 5.7670558 -13 2 C-8.87437647 -1.53624874 -5.00796934 -1.68326318 0 0 Z M-8 4 C-8.66 5.32 -9.32 6.64 -10 8 C-7.36 8 -4.72 8 -2 8 C-2.66 6.68 -3.32 5.36 -4 4 C-5.32 4 -6.64 4 -8 4 Z " fill="#FFFFFF" transform="translate(207,479)"/>
<path d="M0 0 C1.98 0 3.96 0 6 0 C6.33 5.61 6.66 11.22 7 17 C10.68377223 15.42163702 10.68377223 15.42163702 12 14 C12.23527773 11.65012738 12.41386417 9.29443961 12.5625 6.9375 C12.64628906 5.64714844 12.73007813 4.35679687 12.81640625 3.02734375 C12.87699219 2.02832031 12.93757812 1.02929688 13 0 C14.98 0 16.96 0 19 0 C19 7.26 19 14.52 19 22 C16.33333333 22 13.66666667 22 11 22 C9.88625 22.2475 8.7725 22.495 7.625 22.75 C4 23 4 23 1.7890625 21.625 C-0.92588085 17.64150234 -0.43044818 13.94859304 -0.25 9.25 C-0.23195312 8.36183594 -0.21390625 7.47367187 -0.1953125 6.55859375 C-0.14827374 4.37129152 -0.08257009 2.18620184 0 0 Z " fill="#FFFFFF" transform="translate(216,479)"/>
<path d="M0 0 C3.6313048 4.34232951 3.36289389 8.44724579 3.1875 13.8125 C3.16719727 14.99489258 3.16719727 14.99489258 3.14648438 16.20117188 C3.11133456 18.13441169 3.05753361 20.06729682 3 22 C1.02 22 -0.96 22 -3 22 C-3.33 16.39 -3.66 10.78 -4 5 C-5.65 5.66 -7.3 6.32 -9 7 C-9.33 11.95 -9.66 16.9 -10 22 C-11.98 22 -13.96 22 -16 22 C-16 14.74 -16 7.48 -16 0 C-13.66666667 0 -11.33333333 0 -9 0 C-5.40997619 -1.1966746 -3.61734062 -1.05505768 0 0 Z " fill="#FFFFFF" transform="translate(832,479)"/>
<path d="M0 0 C3.6313048 4.34232951 3.36289389 8.44724579 3.1875 13.8125 C3.16719727 14.99489258 3.16719727 14.99489258 3.14648438 16.20117188 C3.11133456 18.13441169 3.05753361 20.06729682 3 22 C1.02 22 -0.96 22 -3 22 C-3.33 16.39 -3.66 10.78 -4 5 C-5.65 5.66 -7.3 6.32 -9 7 C-9.33 11.95 -9.66 16.9 -10 22 C-11.98 22 -13.96 22 -16 22 C-16 14.74 -16 7.48 -16 0 C-13.66666667 0 -11.33333333 0 -9 0 C-5.40997619 -1.1966746 -3.61734062 -1.05505768 0 0 Z " fill="#FFFFFF" transform="translate(712,479)"/>
<path d="M0 0 C3.6313048 4.34232951 3.36289389 8.44724579 3.1875 13.8125 C3.16719727 14.99489258 3.16719727 14.99489258 3.14648438 16.20117188 C3.11133456 18.13441169 3.05753361 20.06729682 3 22 C1.02 22 -0.96 22 -3 22 C-3.33 16.39 -3.66 10.78 -4 5 C-5.65 5.66 -7.3 6.32 -9 7 C-9.33 11.95 -9.66 16.9 -10 22 C-11.98 22 -13.96 22 -16 22 C-16 14.74 -16 7.48 -16 0 C-13.66666667 0 -11.33333333 0 -9 0 C-5.40997619 -1.1966746 -3.61734062 -1.05505768 0 0 Z " fill="#FFFFFF" transform="translate(328,479)"/>
<path d="M0 0 C3.6313048 4.34232951 3.36289389 8.44724579 3.1875 13.8125 C3.16719727 14.99489258 3.16719727 14.99489258 3.14648438 16.20117188 C3.11133456 18.13441169 3.05753361 20.06729682 3 22 C1.02 22 -0.96 22 -3 22 C-3.33 16.39 -3.66 10.78 -4 5 C-5.65 5.66 -7.3 6.32 -9 7 C-9.33 11.95 -9.66 16.9 -10 22 C-11.98 22 -13.96 22 -16 22 C-16 14.74 -16 7.48 -16 0 C-13.66666667 0 -11.33333333 0 -9 0 C-5.40997619 -1.1966746 -3.61734062 -1.05505768 0 0 Z " fill="#FFFFFF" transform="translate(280,479)"/>
<path d="M0 0 C2.44075297 0.42330402 4.87657829 0.86289462 7.3125 1.3125 C8.00279297 1.43044922 8.69308594 1.54839844 9.40429688 1.66992188 C12.1334425 2.18410873 14.53894597 2.72485485 16.9375 4.15625 C18.61793007 7.07229041 18.53486369 9.86002843 18.6875 13.1875 C18.78611328 15.09595703 18.78611328 15.09595703 18.88671875 17.04296875 C18.92410156 18.01878906 18.96148438 18.99460938 19 20 C12.50149789 19.48446121 6.33773468 18.53332291 0 17 C0.33 16.34 0.66 15.68 1 15 C0.91089842 12.44192238 0.76705754 9.9237399 0.5625 7.375 C0.51029297 6.66859375 0.45808594 5.9621875 0.40429688 5.234375 C0.27458793 3.48920013 0.13795046 1.74454275 0 0 Z " fill="#01E105" transform="translate(697,235)"/>
<path d="M0 0 C0 2.31 0 4.62 0 7 C2.64 7 5.28 7 8 7 C8 8.65 8 10.3 8 12 C5.36 12 2.72 12 0 12 C0.33 15.96 0.66 19.92 1 24 C3.31 24 5.62 24 8 24 C8 25.65 8 27.3 8 29 C4.97562661 30.5121867 2.33758466 30.17263369 -1 30 C-3.76142665 28.98263229 -4.68085371 28.63829259 -6 26 C-6.07116382 23.62597499 -6.08409085 21.24999323 -6.0625 18.875 C-6.05347656 17.59367187 -6.04445313 16.31234375 -6.03515625 14.9921875 C-6.02355469 14.00476563 -6.01195312 13.01734375 -6 12 C-7.98 12 -9.96 12 -12 12 C-12 10.35 -12 8.7 -12 7 C-10.02 7 -8.04 7 -6 7 C-6 5.02 -6 3.04 -6 1 C-3 0 -3 0 0 0 Z " fill="#FFFFFF" transform="translate(850,472)"/>
<path d="M0 0 C0 2.31 0 4.62 0 7 C2.64 7 5.28 7 8 7 C8 8.65 8 10.3 8 12 C5.36 12 2.72 12 0 12 C0.33 15.96 0.66 19.92 1 24 C3.31 24 5.62 24 8 24 C8 25.65 8 27.3 8 29 C4.97562661 30.5121867 2.33758466 30.17263369 -1 30 C-3.76142665 28.98263229 -4.68085371 28.63829259 -6 26 C-6.07116382 23.62597499 -6.08409085 21.24999323 -6.0625 18.875 C-6.05347656 17.59367187 -6.04445313 16.31234375 -6.03515625 14.9921875 C-6.02355469 14.00476563 -6.01195312 13.01734375 -6 12 C-7.98 12 -9.96 12 -12 12 C-12 10.35 -12 8.7 -12 7 C-10.02 7 -8.04 7 -6 7 C-6 5.02 -6 3.04 -6 1 C-3 0 -3 0 0 0 Z " fill="#FFFFFF" transform="translate(586,472)"/>
<path d="M0 0 C0 1.65 0 3.3 0 5 C-3.3 5 -6.6 5 -10 5 C-8.65284967 7.69430066 -7.24709508 7.91932594 -4.5 9.0625 C-0.08719346 10.91280654 -0.08719346 10.91280654 1 12 C1.46889952 18.33014354 1.46889952 18.33014354 -0.3125 20.875 C-3.33064136 22.88709424 -5.97892707 23.13673691 -9.5 23.125 C-10.2734375 23.12757813 -11.046875 23.13015625 -11.84375 23.1328125 C-14 23 -14 23 -17 22 C-17 20.35 -17 18.7 -17 17 C-13.37 17 -9.74 17 -6 17 C-6 16.34 -6 15.68 -6 15 C-6.62648437 14.73445313 -7.25296875 14.46890625 -7.8984375 14.1953125 C-8.71570313 13.84210938 -9.53296875 13.48890625 -10.375 13.125 C-11.18710938 12.77695312 -11.99921875 12.42890625 -12.8359375 12.0703125 C-15 11 -15 11 -17 9 C-17 5.5625 -17 5.5625 -16 2 C-11.04163315 -2.06840357 -5.92481612 -0.97185719 0 0 Z " fill="#FFFFFF" transform="translate(185,479)"/>
<path d="M0 0 C0.495 7.92 0.495 7.92 1 16 C-4.57067277 17.59162079 -9.21101581 18.20674944 -15 18 C-15.94350133 13.18814322 -16.0964339 10.4258049 -14 6 C-13.63128912 4.34080104 -13.28718326 2.6752357 -13 1 C-8.53326804 0.28532289 -4.56683437 0 0 0 Z " fill="#076520" transform="translate(789,205)"/>
<path d="M0 0 C0 1.98 0 3.96 0 6 C-3.63 6 -7.26 6 -11 6 C-11.020625 7.27875 -11.04125 8.5575 -11.0625 9.875 C-11.07410156 10.59429687 -11.08570313 11.31359375 -11.09765625 12.0546875 C-11.12649242 14.08185404 -11.12649242 14.08185404 -10 16 C-6.7 16 -3.4 16 0 16 C0 17.98 0 19.96 0 22 C-10.64775846 23.74656908 -10.64775846 23.74656908 -16 20 C-18.91211297 15.63183055 -19.26531546 12.53882968 -18.375 7.375 C-16.60396813 3.02792176 -14.4412238 1.0943417 -10.1875 -0.8125 C-6.71216757 -1.11038564 -3.444988 -0.5167482 0 0 Z " fill="#FFFFFF" transform="translate(498,479)"/>
<path d="M0 0 C2.09232309 3.20822874 3 5.15947088 3 9 C1.02 9 -0.96 9 -3 9 C-3.66 7.68 -4.32 6.36 -5 5 C-7.08611659 5.43516506 -7.08611659 5.43516506 -9 7 C-9.46709352 9.66482841 -9.69572473 11.95070966 -9.75 14.625 C-9.77964844 15.33140625 -9.80929687 16.0378125 -9.83984375 16.765625 C-9.91055357 18.50980047 -9.95754035 20.25490827 -10 22 C-12.31 22 -14.62 22 -17 22 C-17 14.74 -17 7.48 -17 0 C-14.33333333 0 -11.66666667 0 -9 0 C-5.38597653 -1.20467449 -3.62816543 -1.1338017 0 0 Z " fill="#FFFFFF" transform="translate(665,479)"/>
<path d="M0 0 C2.09232309 3.20822874 3 5.15947088 3 9 C1.02 9 -0.96 9 -3 9 C-3.66 7.68 -4.32 6.36 -5 5 C-7.08611659 5.43516506 -7.08611659 5.43516506 -9 7 C-9.46709352 9.66482841 -9.69572473 11.95070966 -9.75 14.625 C-9.77964844 15.33140625 -9.80929687 16.0378125 -9.83984375 16.765625 C-9.91055357 18.50980047 -9.95754035 20.25490827 -10 22 C-12.31 22 -14.62 22 -17 22 C-17 14.74 -17 7.48 -17 0 C-14.33333333 0 -11.66666667 0 -9 0 C-5.38597653 -1.20467449 -3.62816543 -1.1338017 0 0 Z " fill="#FFFFFF" transform="translate(521,479)"/>
<path d="M0 0 C4.62 0 9.24 0 14 0 C14.495 8.415 14.495 8.415 15 17 C3.28571429 17.14285714 3.28571429 17.14285714 -2 16 C-0.68 15.67 0.64 15.34 2 15 C1.855625 14.25234375 1.71125 13.5046875 1.5625 12.734375 C1.376875 11.74953125 1.19125 10.7646875 1 9.75 C0.814375 8.77546875 0.62875 7.8009375 0.4375 6.796875 C0 4 0 4 0 0 Z " fill="#03B90E" transform="translate(714,206)"/>
<path d="M0 0 C4.29 0 8.58 0 13 0 C13 5.94 13 11.88 13 18 C14.98 18 16.96 18 19 18 C19 19.32 19 20.64 19 22 C12.73 22 6.46 22 0 22 C0 20.68 0 19.36 0 18 C2.31 18 4.62 18 7 18 C7 13.71 7 9.42 7 5 C5.02 5 3.04 5 1 5 C0.67 3.35 0.34 1.7 0 0 Z " fill="#FFFFFF" transform="translate(744,479)"/>
<path d="M0 0 C4.29 0 8.58 0 13 0 C13 5.94 13 11.88 13 18 C14.98 18 16.96 18 19 18 C19 19.32 19 20.64 19 22 C12.73 22 6.46 22 0 22 C0 20.68 0 19.36 0 18 C2.31 18 4.62 18 7 18 C7 13.71 7 9.42 7 5 C5.02 5 3.04 5 1 5 C0.67 3.35 0.34 1.7 0 0 Z " fill="#FFFFFF" transform="translate(528,479)"/>
<path d="M0 0 C4.29 0 8.58 0 13 0 C13 5.94 13 11.88 13 18 C14.98 18 16.96 18 19 18 C19 19.32 19 20.64 19 22 C12.73 22 6.46 22 0 22 C0 20.68 0 19.36 0 18 C2.31 18 4.62 18 7 18 C7 13.71 7 9.42 7 5 C5.02 5 3.04 5 1 5 C0.67 3.35 0.34 1.7 0 0 Z " fill="#FFFFFF" transform="translate(288,479)"/>
<path d="M0 0 C1.0393868 3.39043406 2.05317093 6.78800806 3.0625 10.1875 C3.35705078 11.14720703 3.65160156 12.10691406 3.95507812 13.09570312 C4.3659668 14.49272461 4.3659668 14.49272461 4.78515625 15.91796875 C5.04176025 16.77156982 5.29836426 17.6251709 5.56274414 18.50463867 C6.34425336 22.96460838 5.30622746 25.50818014 2.9375 29.3125 C2.298125 30.199375 1.65875 31.08625 1 32 C-2.42022725 28.57977275 -2.94963851 23.70945645 -4.1875 19.125 C-4.47302734 18.11824219 -4.75855469 17.11148438 -5.05273438 16.07421875 C-5.31763672 15.10355469 -5.58253906 14.13289062 -5.85546875 13.1328125 C-6.09934326 12.24480957 -6.34321777 11.35680664 -6.59448242 10.44189453 C-7.02269352 7.86334703 -6.92357295 6.42661712 -6 4 C-2.55555556 0 -2.55555556 0 0 0 Z " fill="#4D5769" transform="translate(859,211)"/>
<path d="M0 0 C4.29 0 8.58 0 13 0 C13.66 5.28 14.32 10.56 15 16 C10.71 16 6.42 16 2 16 C0 5.625 0 5.625 0 0 Z " fill="#058719" transform="translate(743,208)"/>
<path d="M0 0 C-7.18037601 9.27898832 -15.0212877 19.1440311 -26 24 C-29.4375 24.25 -29.4375 24.25 -32 24 C-31.69719638 20.91690859 -31.06933998 20.05956723 -28.671875 18 C-27.70765625 17.34 -26.7434375 16.68 -25.75 16 C-18.584348 11.16087117 -18.584348 11.16087117 -12.6875 4.9375 C-9.63151131 1.59723329 -4.67910833 -2.33955416 0 0 Z " fill="#21523D" transform="translate(828,229)"/>
<path d="M0 0 C5.94 0.99 5.94 0.99 12 2 C12.66 7.28 13.32 12.56 14 18 C5 18 5 18 2 17.5 C1.01 17.335 0.02 17.17 -1 17 C-0.01 16.67 0.98 16.34 2 16 C1.34 10.72 0.68 5.44 0 0 Z " fill="#02C00C" transform="translate(714,239)"/>
<path d="M0 0 C0.66 0.33 1.32 0.66 2 1 C1.67 1.99 1.34 2.98 1 4 C1.49188958 5.93476567 1.98762374 7.86882011 2.51953125 9.79296875 C3.26947422 13.23782874 3.12551908 16.48546581 3 20 C0.03 21.32 -2.94 22.64 -6 24 C-6.47206219 21.27286363 -6.90301402 18.54911939 -7.3125 15.8125 C-7.44978516 15.04357422 -7.58707031 14.27464844 -7.72851562 13.48242188 C-8.04808353 11.22607881 -8.24212092 9.26773667 -8 7 C-5.58104349 3.88158619 -3.26980416 2.17986944 0 0 Z " fill="#285244" transform="translate(818,258)"/>
<path d="M0 0 C-0.99 0 -1.98 0 -3 0 C-2.34 5.61 -1.68 11.22 -1 17 C-8.71484375 17.09765625 -8.71484375 17.09765625 -11 17 C-12.99616554 15.00383446 -12.40983427 11.18298037 -12.5625 8.4375 C-12.60568359 7.72658203 -12.64886719 7.01566406 -12.69335938 6.28320312 C-12.79971777 4.52238088 -12.90038846 2.7612168 -13 1 C-11.58622218 0.63447197 -10.16879424 0.28304505 -8.75 -0.0625 C-7.96109375 -0.25972656 -7.1721875 -0.45695312 -6.359375 -0.66015625 C-3.89605178 -1.01497267 -2.34395868 -0.76877544 0 0 Z " fill="#086F20" transform="translate(784,274)"/>
<path d="M0 0 C5.16309352 -0.07822869 9.91902274 -0.04225175 15 1 C15 1.33 15 1.66 15 2 C13.35 2 11.7 2 10 2 C10.66 6.95 11.32 11.9 12 17 C8.7 17 5.4 17 2 17 C1.34 11.39 0.68 5.78 0 0 Z " fill="#02CF0A" transform="translate(704,204)"/>
<path d="M0 0 C0.66 0.33 1.32 0.66 2 1 C1.82597656 1.68449219 1.65195312 2.36898438 1.47265625 3.07421875 C0.92653455 6.45475722 1.12777331 9.40550643 1.4375 12.8125 C1.53933594 13.97394531 1.64117188 15.13539063 1.74609375 16.33203125 C1.82988281 17.21246094 1.91367187 18.09289062 2 19 C-3.75 22 -3.75 22 -6 22 C-8.31976544 17.36046911 -9.64500608 12.17658729 -9 7 C-6.61184061 3.75053722 -3.57061669 1.78530834 0 0 Z " fill="#215B3C" transform="translate(810,263)"/>
<path d="M0 0 C2.64 0.33 5.28 0.66 8 1 C8.66 6.61 9.32 12.22 10 18 C11.65 18 13.3 18 15 18 C15 18.33 15 18.66 15 19 C10.17639811 19.19294408 6.50353262 18.75747614 2 17 C0.7017874 11.23918159 -0.25706972 5.91260345 0 0 Z " fill="#10AB1D" transform="translate(736,273)"/>
<path d="M0 0 C1.65 0 3.3 0 5 0 C5.66 4.95 6.32 9.9 7 15 C9.31 15.33 11.62 15.66 14 16 C14 16.33 14 16.66 14 17 C5.3387414 18.25981943 -3.27001243 18.09020653 -12 18 C-12 17.67 -12 17.34 -12 17 C-7.71 17 -3.42 17 1 17 C0.505 14.710625 0.505 14.710625 0 12.375 C-0.77135828 8.5182086 -1.30379142 4.9492884 -1 1 C-0.67 0.67 -0.34 0.34 0 0 Z " fill="#2C8F3E" transform="translate(766,275)"/>
<path d="M0 0 C0.33 0 0.66 0 1 0 C1.33 4.95 1.66 9.9 2 15 C-6.03571429 17.27678571 -6.03571429 17.27678571 -10 16 C-10.7918958 10.89667149 -10.7918958 10.89667149 -10 8 C-7.83020786 6.01963416 -5.62593729 4.66054077 -3.06640625 3.2265625 C-0.85863643 2.16799605 -0.85863643 2.16799605 0 0 Z " fill="#12612C" transform="translate(788,206)"/>
<path d="M0 0 C2.64 0 5.28 0 8 0 C8.66 5.28 9.32 10.56 10 16 C7.36 16 4.72 16 2 16 C1.34 10.72 0.68 5.44 0 0 Z " fill="#059715" transform="translate(735,208)"/>
<path d="M0 0 C-0.57915386 6.72123291 -1.86620319 12.59860957 -4 19 C-7.5625 20.1875 -7.5625 20.1875 -11 21 C-10.24742268 15.48109966 -10.24742268 15.48109966 -9.015625 13.0859375 C-7.59320503 10.16450572 -7.25595189 7.21364937 -6.7578125 4.0234375 C-6 2 -6 2 -4.0546875 0.7265625 C-2 0 -2 0 0 0 Z " fill="#3B4A59" transform="translate(841,191)"/>
<path d="M0 0 C6.875 0.875 6.875 0.875 8 2 C8.23527773 4.34987262 8.41386417 6.70556039 8.5625 9.0625 C8.64628906 10.35285156 8.73007812 11.64320313 8.81640625 12.97265625 C8.87699219 13.97167969 8.93757812 14.97070312 9 16 C6.69 16 4.38 16 2 16 C0.80911014 10.61972975 -0.2919519 5.54708616 0 0 Z " fill="#059715" transform="translate(740,242)"/>
<path d="M0 0 C1.65 0 3.3 0 5 0 C6.80304155 5.30094216 8.50723624 10.60308488 10 16 C7.03 16.33 4.06 16.66 1 17 C-0.22517308 11.33357449 -0.09228867 5.76291482 0 0 Z " fill="#1A5736" transform="translate(789,204)"/>
<path d="M0 0 C3.3 0 6.6 0 10 0 C10.33 5.61 10.66 11.22 11 17 C8.69 17 6.38 17 4 17 C3.87882813 15.85660156 3.75765625 14.71320313 3.6328125 13.53515625 C3.46402679 12.04421583 3.29472953 10.55333327 3.125 9.0625 C3.04636719 8.30775391 2.96773437 7.55300781 2.88671875 6.77539062 C2.66116192 4.84080701 2.33741026 2.91823981 2 1 C1.34 0.67 0.68 0.34 0 0 Z " fill="#06811A" transform="translate(756,275)"/>
<path d="M0 0 C1.98 0.66 3.96 1.32 6 2 C6.20496094 3.27617187 6.40992188 4.55234375 6.62109375 5.8671875 C6.89305815 7.53648621 7.16520291 9.20575553 7.4375 10.875 C7.57220703 11.71675781 7.70691406 12.55851562 7.84570312 13.42578125 C7.97783203 14.23144531 8.10996094 15.03710938 8.24609375 15.8671875 C8.36654053 16.61081543 8.4869873 17.35444336 8.61108398 18.12060547 C8.93247105 20.07884647 8.93247105 20.07884647 10 22 C6.625 21.4375 6.625 21.4375 3 20 C0.04155782 13.94864101 0.37899614 6.63243243 0 0 Z " fill="#0ED615" transform="translate(712,264)"/>
<path d="M0 0 C2.97 0.495 2.97 0.495 6 1 C6.66 6.94 7.32 12.88 8 19 C6.68 19 5.36 19 4 19 C4 18.34 4 17.68 4 17 C3.34 17 2.68 17 2 17 C1.66151348 15.10507994 1.32943089 13.20901534 1 11.3125 C0.814375 10.25675781 0.62875 9.20101563 0.4375 8.11328125 C0.04931926 5.35095938 -0.08259976 2.78257957 0 0 Z " fill="#09B515" transform="translate(730,271)"/>
<path d="M0 0 C2.475 0.495 2.475 0.495 5 1 C6.19088986 6.38027025 7.2919519 11.45291384 7 17 C5.35 17 3.7 17 2 17 C0.4943096 11.19233704 -0.21824777 6.0018137 0 0 Z " fill="#02D309" transform="translate(709,238)"/>
<path d="M0 0 C2.41796875 1.07421875 2.41796875 1.07421875 5 3 C5.92578125 6.14453125 5.92578125 6.14453125 6.3125 9.8125 C6.45300781 11.01519531 6.59351563 12.21789062 6.73828125 13.45703125 C6.97460299 16.65619266 7.05400644 19.79398118 7 23 C6.34 23 5.68 23 5 23 C2.0975684 18.022131 1.3312365 13.7406795 0.8125 8.125 C0.73064453 7.34125 0.64878906 6.5575 0.56445312 5.75 C0.36588325 3.83438471 0.18148253 1.91730958 0 0 Z " fill="#06E909" transform="translate(699,256)"/>
<path d="M0 0 C-1.40769635 1.79872312 -2.82651003 3.58874968 -4.25 5.375 C-5.03890625 6.37273437 -5.8278125 7.37046875 -6.640625 8.3984375 C-8.75596965 10.73092018 -10.10691236 11.89850333 -13 13 C-13.75 9.75 -13.75 9.75 -14 6 C-11.50573415 2.09593172 -4.57138457 -2.28569229 0 0 Z " fill="#284846" transform="translate(828,229)"/>
<path d="M0 0 C1.32 0.33 2.64 0.66 4 1 C4.99 7.27 5.98 13.54 7 20 C3 18 3 18 1.7890625 15.80078125 C0.87619016 12.56053636 0.57857088 9.5464196 0.375 6.1875 C0.30023437 5.02605469 0.22546875 3.86460937 0.1484375 2.66796875 C0.09945312 1.78753906 0.05046875 0.90710938 0 0 Z " fill="#08CC11" transform="translate(718,267)"/>
<path d="M0 0 C-3.57729872 4.66132863 -7.10867301 7.73911534 -12 11 C-12.33 8.36 -12.66 5.72 -13 3 C-11.40084119 2.30093058 -9.79544955 1.61610532 -8.1875 0.9375 C-7.29417969 0.55464844 -6.40085937 0.17179688 -5.48046875 -0.22265625 C-3 -1 -3 -1 0 0 Z " fill="#084A25" transform="translate(817,233)"/>
<path d="M0 0 C0.33 1.98 0.66 3.96 1 6 C-1.3260857 6.38063221 -3.66055264 6.71269945 -6 7 C-7 6 -7 6 -7.0625 2.9375 C-7.041875 1.968125 -7.02125 0.99875 -7 0 C-3.86650268 -1.04449911 -3.01031744 -0.93423645 0 0 Z " fill="#12612D" transform="translate(790,240)"/>
<path d="M0 0 C0.66 0.33 1.32 0.66 2 1 C-3.94 6.94 -9.88 12.88 -16 19 C-16.66 18.67 -17.32 18.34 -18 18 C-6.66287016 5.33029613 -6.66287016 5.33029613 0 0 Z " fill="#5DE95D" transform="translate(700,105)"/>
<path d="M0 0 C0.66 0.33 1.32 0.66 2 1 C2.625 3.5625 2.625 3.5625 3 6 C-0.4019487 8.09350689 -3.05272412 8.17942163 -7 8 C-6.875 6.25 -6.875 6.25 -6 4 C-2.9375 1.75 -2.9375 1.75 0 0 Z " fill="#1A5636" transform="translate(803,245)"/>
<path d="M0 0 C2.475 0.99 2.475 0.99 5 2 C4.67 3.65 4.34 5.3 4 7 C2.34385343 7.38218767 0.67542976 7.71395102 -1 8 C-2 7 -2 7 -2.1875 4.5625 C-2 2 -2 2 0 0 Z " fill="#FFFFFF" transform="translate(752,469)"/>
<path d="M0 0 C2.475 0.99 2.475 0.99 5 2 C4.67 3.65 4.34 5.3 4 7 C2.34385343 7.38218767 0.67542976 7.71395102 -1 8 C-2 7 -2 7 -2.1875 4.5625 C-2 2 -2 2 0 0 Z " fill="#FFFFFF" transform="translate(536,469)"/>
<path d="M0 0 C2.475 0.99 2.475 0.99 5 2 C4.67 3.65 4.34 5.3 4 7 C2.34385343 7.38218767 0.67542976 7.71395102 -1 8 C-2 7 -2 7 -2.1875 4.5625 C-2 2 -2 2 0 0 Z " fill="#FFFFFF" transform="translate(296,469)"/>
<path d="M0 0 C2.12508244 3.18762365 2.5020163 5.26512223 3 9 C1.68 9 0.36 9 -1 9 C-1.09765625 2.84765625 -1.09765625 2.84765625 -1 1 C-0.67 0.67 -0.34 0.34 0 0 Z " fill="#0B5A26" transform="translate(792,279)"/>
<path d="M0 0 C0.33 0.99 0.66 1.98 1 3 C1.66 3.33 2.32 3.66 3 4 C-0.63 4.33 -4.26 4.66 -8 5 C-6.37633534 1.75267068 -3.24612161 1.29844864 0 0 Z " fill="#125B2D" transform="translate(795,250)"/>
<path d="M0 0 C0.66 0 1.32 0 2 0 C2.33 1.98 2.66 3.96 3 6 C1.68 6.33 0.36 6.66 -1 7 C-0.67 4.69 -0.34 2.38 0 0 Z " fill="#445062" transform="translate(853,196)"/>
</svg>
